<?xml version="1.0" encoding="utf-8"?>
<svg height="512" viewBox="0 0 52 60" width="512" xmlns="http://www.w3.org/2000/svg">
  <g id="Page-1" fill="none" fill-rule="evenodd">
    <g id="003---CSS-File" fill-rule="nonzero">
      <g id="Icons" transform="translate(1 1)">
        <path id="Shape" d="m46 8v26h-42v-32c.0032948-1.10320187.89679813-1.9967052 2-2h32z" fill="#e8edfc"/>
        <path id="Rectangle-path" d="m43 8h3v26h-3z" fill="#cad9fc"/>
        <path id="Shape" d="m46 52v4c-.0032948 1.1032019-.8967981 1.9967052-2 2h-38c-1.10320187-.0032948-1.9967052-.8967981-2-2v-4z" fill="#e8edfc"/>
        <path id="Shape" d="m43 52v4c-.0032948 1.1032019-.8967981 1.9967052-2 2h3c1.1032019-.0032948 1.9967052-.8967981 2-2v-4z" fill="#cad9fc"/>
        <path id="Shape" d="m38 0v6c0 1.1045695.8954305 2 2 2h6z" fill="#cad9fc"/>
        <path id="Shape" d="m50 32v18c-.0032948 1.1032019-.8967981 1.9967052-2 2h-46c-1.10320187-.0032948-1.9967052-.8967981-2-2v-18c.0032948 1.1032019.89679813 1.9967052 2 2h46c1.1011688-.0081672 1.9918328-.8988312 2-2z" style="fill: rgb(178, 176, 243);"/>
        <g fill="#7facfa">
          <path id="Shape" d="m49.41 33.41c-.3704612.3798589-.8794095.5928231-1.41.59h-1v16c-.0032948 1.1032019-.8967981 1.9967052-2 2h3c1.1032019-.0032948 1.9967052-.8967981 2-2l.0000277-18c.0027954.5305905-.2101688 1.0395388-.5900277 1.41z" style="fill: rgb(143, 154, 239);"/>
          <path id="Shape" d="m4 30v4h-2c-1.10320187-.0032948-1.9967052-.8967981-2-2 .00816722-1.1011688.89883122-1.9918328 2-2z"/>
          <path id="Shape" d="m50 32c-.0081672 1.1011688-.8988312 1.9918328-2 2h-2v-4h2c1.1032019.0032948 1.9967052.8967981 2 2z" style="fill: rgb(143, 154, 239);"/>
        </g>
      </g>
      <g id="Icons_copy_2" fill="#fff" transform="translate(1 1)">
        <path id="Shape" d="m2 52h2v4c.0032948 1.1032019.89679813 1.9967052 2 2h3c-1.10320187-.0032948-1.9967052-.8967981-2-2v-4h-2c-1.10320187-.0032948-1.9967052-.8967981-2-2v-18c.00816722-1.1011688.89883122-1.9918328 2-2h2v-28c.0032948-1.10320187.89679813-1.9967052 2-2h-3c-1.10320187.0032948-1.9967052.89679813-2 2v28h-2c-1.10116878.0081672-1.99183278.8988312-2 2v18c.0032948 1.1032019.89679813 1.9967052 2 2z"/>
      </g>
      <g id="Icons_copy">
        <path id="Rectangle-path" d="m4 3h2v8h-2z" fill="#fff"/>
        <g fill="#428dff">
          <circle id="Oval" cx="5" cy="7" r="1" style="fill: rgb(143, 154, 239);"/>
          <path id="Shape" d="m3 54h1v3c0 1.6568542 1.34314575 3 3 3h38c1.6568542 0 3-1.3431458 3-3v-3h1c1.6568542 0 3-1.3431458 3-3v-18c0-1.6568542-1.3431458-3-3-3h-1v-21c-.0000566-.26519481-.1054506-.51950727-.293-.707l-8-8c-.1874927-.18754937-.4418052-.29294336-.707-.293h-32c-1.65685425 0-3 1.34314575-3 3 0 .55228475.44771525 1 1 1s1-.44771525 1-1 .44771525-1 1-1h31v5c0 1.65685425 1.3431458 3 3 3h5v24h-40v-23c0-.5522847-.44771525-1-1-1s-1 .4477153-1 1v19h-1c-1.65685425 0-3 1.3431458-3 3v18c0 1.6568542 1.34314575 3 3 3zm43 3c0 .5522847-.4477153 1-1 1h-38c-.55228475 0-1-.4477153-1-1v-3h40zm3-5h-46c-.55228475 0-1-.4477153-1-1v-15.184c.32025698.1184378.65856033.1806856 1 .184h46c.3414397-.0033144.679743-.0655622 1-.184v15.184c0 .5522847-.4477153 1-1 1zm-9-45v-3.586l4.586 4.586h-3.586c-.5522847 0-1-.44771525-1-1zm8 25h1c.5522847 0 1 .4477153 1 1s-.4477153 1-1 1h-1zm-45 0h1v2h-1c-.55228475 0-1-.4477153-1-1s.44771525-1 1-1z" style="fill: rgb(18, 17, 133);"/>
          <path id="Shape" d="m17 40c1.1045695 0 2 .8954305 2 2 0 .5522847.4477153 1 1 1s1-.4477153 1-1c0-2.209139-1.790861-4-4-4s-4 1.790861-4 4v4c0 2.209139 1.790861 4 4 4s4-1.790861 4-4c0-.5522847-.4477153-1-1-1s-1 .4477153-1 1c0 1.1045695-.8954305 2-2 2s-2-.8954305-2-2v-4c0-1.1045695.8954305-2 2-2z" style="fill: rgb(23, 17, 133);"/>
          <path id="Shape" d="m26.5 40h2.5c.5522847 0 1-.4477153 1-1s-.4477153-1-1-1h-2.5c-1.9329966 0-3.5 1.5670034-3.5 3.5s1.5670034 3.5 3.5 3.5c.8284271 0 1.5.6715729 1.5 1.5s-.6715729 1.5-1.5 1.5h-2.5c-.5522847 0-1 .4477153-1 1s.4477153 1 1 1h2.5c1.9329966 0 3.5-1.5670034 3.5-3.5s-1.5670034-3.5-3.5-3.5c-.8284271 0-1.5-.6715729-1.5-1.5s.6715729-1.5 1.5-1.5z" style="fill: rgb(21, 17, 133);"/>
          <path id="Shape" d="m35.5 40h2.5c.5522847 0 1-.4477153 1-1s-.4477153-1-1-1h-2.5c-1.9329966 0-3.5 1.5670034-3.5 3.5s1.5670034 3.5 3.5 3.5c.8284271 0 1.5.6715729 1.5 1.5s-.6715729 1.5-1.5 1.5h-2.5c-.5522847 0-1 .4477153-1 1s.4477153 1 1 1h2.5c1.9329966 0 3.5-1.5670034 3.5-3.5s-1.5670034-3.5-3.5-3.5c-.8284271 0-1.5-.6715729-1.5-1.5s.6715729-1.5 1.5-1.5z" style="fill: rgb(21, 17, 133);"/>
          <path id="Shape" d="m17 18c0-.5522847.4477153-1 1-1s1-.4477153 1-1-.4477153-1-1-1c-1.6568542 0-3 1.3431458-3 3v2c0 .5522847-.4477153 1-1 1s-1 .4477153-1 1 .4477153 1 1 1 1 .4477153 1 1v2c0 1.6568542 1.3431458 3 3 3 .5522847 0 1-.4477153 1-1s-.4477153-1-1-1-1-.4477153-1-1v-2c.0006597-.7384319-.2722291-1.4509351-.766-2 .4937709-.5490649.7666597-1.2615681.766-2z" style="fill: rgb(21, 17, 133);"/>
          <path id="Shape" d="m35 26c0 .5522847-.4477153 1-1 1s-1 .4477153-1 1 .4477153 1 1 1c1.6568542 0 3-1.3431458 3-3v-2c0-.5522847.4477153-1 1-1s1-.4477153 1-1-.4477153-1-1-1-1-.4477153-1-1v-2c0-1.6568542-1.3431458-3-3-3-.5522847 0-1 .4477153-1 1s.4477153 1 1 1 1 .4477153 1 1v2c-.0006597.7384319.2722291 1.4509351.766 2-.4937709.5490649-.7666597 1.2615681-.766 2z" style="fill: rgb(19, 17, 133);"/>
          <circle id="Oval" cx="22" cy="27" r="1" style="fill: rgb(21, 17, 133);"/>
          <circle id="Oval" cx="26" cy="27" r="1" style="fill: rgb(21, 17, 133);"/>
          <circle id="Oval" cx="30" cy="27" r="1" style="fill: rgb(21, 17, 133);"/>
        </g>
      </g>
    </g>
  </g>
</svg>