<?xml version="1.0" encoding="utf-8"?>
<svg height="512" viewBox="0 0 52 60" width="512" xmlns="http://www.w3.org/2000/svg">
  <g id="Page-1" fill="none" fill-rule="evenodd">
    <g id="013---HTML-File" fill-rule="nonzero">
      <g id="Icons" transform="translate(1 1)">
        <path id="Shape" d="m50 32v18c0 1.1045695-.8954305 2-2 2h-46c-1.1045695 0-2-.8954305-2-2v-18z" style="fill: rgb(178, 176, 243);"/>
        <path id="Shape" d="m47 32v18c0 1.1045695-.8954305 2-2 2h3c1.1045695 0 2-.8954305 2-2v-18z" style="fill: rgb(143, 154, 239);"/>
        <path id="Shape" d="m46 30h2c1.1045695 0 2 .8954305 2 2s-.8954305 2-2 2h-46c-1.1045695 0-2-.8954305-2-2s.8954305-2 2-2z" style="fill: rgb(143, 154, 239);"/>
        <path id="Shape" d="m4 34v-32c.0032948-1.10320187.89679813-1.9967052 2-2h32l8 8v26" fill="#e8edfc"/>
        <path id="Rectangle-path" d="m43 8h3v26h-3z" fill="#cad9fc"/>
        <path id="Shape" d="m46 52v4c-.0032948 1.1032019-.8967981 1.9967052-2 2h-38c-1.10320187-.0032948-1.9967052-.8967981-2-2v-4" fill="#e8edfc"/>
        <g fill="#cad9fc">
          <path id="Shape" d="m43 52v4c-.0032948 1.1032019-.8967981 1.9967052-2 2h3c1.1032019-.0032948 1.9967052-.8967981 2-2v-4z"/>
          <path id="Shape" d="m38 0v6c0 1.1045695.8954305 2 2 2h6"/>
        </g>
      </g>
      <g id="Icons_copy_2" fill="#fff" transform="translate(1 1)">
        <path id="Shape" d="m2 52h2v4c.0032948 1.1032019.89679813 1.9967052 2 2h3c-1.10320187-.0032948-1.9967052-.8967981-2-2v-4h-2c-1.1045695 0-2-.8954305-2-2v-18c0-1.1045695.8954305-2 2-2h2v-28c.0032948-1.10320187.89679813-1.9967052 2-2h-3c-1.10320187.0032948-1.9967052.89679813-2 2v28h-2c-1.1045695 0-2 .8954305-2 2v18c0 1.1045695.8954305 2 2 2z"/>
      </g>
      <g id="Icons_copy">
        <path id="Rectangle-path" d="m4 3h2v8h-2z" fill="#fff"/>
        <g fill="#428dff">
          <circle id="Oval" cx="5" cy="7" r="1" style="fill: rgb(21, 17, 133);"/>
          <path id="Shape" d="m15 38c-.5522847 0-1 .4477153-1 1v4h-3v-4c0-.5522847-.4477153-1-1-1-.55228475 0-1 .4477153-1 1v10c0 .5522847.44771525 1 1 1 .5522847 0 1-.4477153 1-1v-4h3v4c0 .5522847.4477153 1 1 1s1-.4477153 1-1v-10c0-.5522847-.4477153-1-1-1z" style="fill: rgb(23, 17, 133);"/>
          <path id="Shape" d="m35.23 38.027c-.4516264-.1069816-.9175031.1108417-1.125.526l-2.105 4.211-2.1-4.211c-.2040519-.4214702-.6732513-.6449027-1.129074-.5376645-.4558226.1072383-.7761896.5164267-.770926.9846645v10c0 .5522847.4477153 1 1 1s1-.4477153 1-1v-5.764l1.1 2.211c.187968.3152706.5279475.5083906.895.5083906s.707032-.19312.895-.5083906l1.11-2.211v5.764c0 .5522847.4477153 1 1 1s1-.4477153 1-1v-10c-.0000884-.4636114-.3188177-.8663694-.77-.973z" style="fill: rgb(23, 17, 133);"/>
          <path id="Shape" d="m42 48h-2v-9c0-.5522847-.4477153-1-1-1s-1 .4477153-1 1v10c0 .5522847.4477153 1 1 1h3c.5522847 0 1-.4477153 1-1s-.4477153-1-1-1z" style="fill: rgb(23, 17, 133);"/>
          <path id="Shape" d="m25 38h-6c-.5522847 0-1 .4477153-1 1s.4477153 1 1 1h2v9c0 .5522847.4477153 1 1 1s1-.4477153 1-1v-9h2c.5522847 0 1-.4477153 1-1s-.4477153-1-1-1z" style="fill: rgb(23, 17, 133);"/>
          <path id="Shape" d="m3 54h1v3c0 1.6568542 1.34314575 3 3 3h38c1.6568542 0 3-1.3431458 3-3v-3h1c1.6568542 0 3-1.3431458 3-3v-18c0-1.6568542-1.3431458-3-3-3h-1v-21c-.0000566-.26519481-.1054506-.51950727-.293-.707l-8-8c-.1874927-.18754937-.4418052-.29294336-.707-.293h-32c-1.65685425 0-3 1.34314575-3 3 0 .55228475.44771525 1 1 1s1-.44771525 1-1 .44771525-1 1-1h31v5c0 1.65685425 1.3431458 3 3 3h5v24h-40v-23c0-.5522847-.44771525-1-1-1s-1 .4477153-1 1v19h-1c-1.65685425 0-3 1.3431458-3 3v18c0 1.6568542 1.34314575 3 3 3zm43 3c0 .5522847-.4477153 1-1 1h-38c-.55228475 0-1-.4477153-1-1v-3h40zm3-5h-46c-.55228475 0-1-.4477153-1-1v-15.184c.32025698.1184378.65856033.1806856 1 .184h46c.3414397-.0033144.679743-.0655622 1-.184v15.184c0 .5522847-.4477153 1-1 1zm-9-45v-3.586l4.586 4.586h-3.586c-.5522847 0-1-.44771525-1-1zm8 25h1c.5522847 0 1 .4477153 1 1s-.4477153 1-1 1h-1zm-45 0h1v2h-1c-.55228475 0-1-.4477153-1-1s.44771525-1 1-1z" style="fill: rgb(19, 17, 133);"/>
          <path id="Shape" d="m20.707 16.293c-.3904999-.3903819-1.0235001-.3903819-1.414 0l-5 5c-.3903819.3904999-.3903819 1.0235001 0 1.414l5 5c.3923789.3789722 1.0160848.3735524 1.4018186-.0121814s.3911536-1.0094397.0121814-1.4018186l-4.293-4.293 4.293-4.293c.3903819-.3904999.3903819-1.0235001 0-1.414z" style="fill: rgb(21, 17, 133);"/>
          <path id="Shape" d="m31.293 27.707c.3904999.3903819 1.0235001.3903819 1.414 0l5-5c.3903819-.3904999.3903819-1.0235001 0-1.414l-5-5c-.3923789-.3789722-1.0160848-.3735524-1.4018186.0121814s-.3911536 1.0094397-.0121814 1.4018186l4.293 4.293-4.293 4.293c-.3903819.3904999-.3903819 1.0235001 0 1.414z" style="fill: rgb(23, 17, 133);"/>
          <path id="Shape" d="m24 28c.408945.0003137.7768725-.2484037.929-.628l4-10c.2054499-.5130725-.0439275-1.0955501-.557-1.301s-1.0955501.0439275-1.301.557l-4 10c-.0985451.2462521-.0952223.5215667.0092375.7653686.1044597.243802.3014982.4361169.5477625.5346314.1183814.0471373.2445799.0715628.372.072z" style="fill: rgb(23, 17, 133);"/>
        </g>
      </g>
    </g>
  </g>
</svg>