<svg height="512" viewBox="0 0 176 176" width="512" xmlns="http://www.w3.org/2000/svg"><g id="Layer_2" data-name="Layer 2"><g id="_10.linkedin" data-name="10.linkedin"><path d="m144.46 0h-144.46v144.46a31.54 31.54 0 0 0 31.54 31.54h144.46v-144.46a31.54 31.54 0 0 0 -31.54-31.54zm-81.91 134.62a3.38 3.38 0 0 1 -3.38 3.38h-14.37a3.38 3.38 0 0 1 -3.38-3.38v-60.25a3.38 3.38 0 0 1 3.38-3.37h14.37a3.38 3.38 0 0 1 3.38 3.38zm-10.55-69.31a13.66 13.66 0 1 1 13.64-13.66 13.65 13.65 0 0 1 -13.64 13.66zm85.68 69.58a3.1 3.1 0 0 1 -3.1 3.11h-15.44a3.1 3.1 0 0 1 -3.1-3.11v-28.26c0-4.22 1.23-18.48-11-18.48-9.5 0-11.43 9.76-11.81 14.14v32.6a3.11 3.11 0 0 1 -3.14 3.11h-14.92a3.1 3.1 0 0 1 -3.11-3.11v-60.79a3.11 3.11 0 0 1 3.11-3.1h14.92a3.11 3.11 0 0 1 3.11 3.1v5.25c3.52-5.29 8.8-9.35 19.91-9.35 24.7 0 24.56 23.07 24.56 35.75z"/></g></g></svg>