<svg xmlns="http://www.w3.org/2000/svg" xmlns:xlink="http://www.w3.org/1999/xlink" width="500" zoomAndPan="magnify" viewBox="0 0 375 374.999991" height="500" preserveAspectRatio="xMidYMid meet" version="1.0"><defs><clipPath id="a574ae9003"><path d="M 3.964844 1 L 375 1 L 375 373 L 3.964844 373 Z M 3.964844 1 " clip-rule="nonzero"/></clipPath></defs><g clip-path="url(#a574ae9003)"><path fill="#111185" d="M 319.925781 317.234375 L 264.972656 317.234375 L 264.972656 231.183594 C 264.972656 210.664062 264.605469 184.253906 236.398438 184.253906 C 208.1875 184.253906 203.398438 206.609375 203.398438 229.699219 L 203.398438 317.234375 L 148.445312 317.234375 L 148.445312 140.277344 L 201.195312 140.277344 L 201.195312 164.46875 L 201.929688 164.46875 C 212.679688 146.082031 232.691406 135.085938 253.980469 135.890625 C 309.667969 135.890625 319.945312 172.527344 319.945312 220.171875 L 319.945312 317.25 Z M 86.464844 116.089844 C 68.847656 116.089844 54.582031 101.824219 54.566406 84.207031 C 54.546875 66.589844 68.828125 52.324219 86.445312 52.308594 C 104.066406 52.308594 118.328125 66.570312 118.347656 84.1875 C 118.363281 101.808594 104.082031 116.070312 86.464844 116.089844 M 113.941406 317.234375 L 58.9375 317.234375 L 58.9375 140.277344 L 113.941406 140.277344 Z M 347.316406 1.289062 L 31.335938 1.289062 C 16.394531 1.128906 4.140625 13.085938 3.964844 28.03125 L 3.964844 345.339844 C 4.140625 360.28125 16.394531 372.253906 31.335938 372.097656 L 347.332031 372.097656 C 362.3125 372.289062 374.601562 360.316406 374.808594 345.339844 L 374.808594 27.996094 C 374.582031 13.035156 362.296875 1.078125 347.316406 1.269531 " fill-opacity="1" fill-rule="nonzero"/></g></svg>