<?xml version="1.0" encoding="utf-8"?>
<svg height="300" viewBox="0 0 60 60" width="300" xmlns="http://www.w3.org/2000/svg" version="1.1">
  <g width="100%" height="100%" transform="matrix(1,0,0,1,0,0)">
    <g id="Page-1" fill="none" fill-rule="evenodd">
      <g id="003---Penguin" fill-rule="nonzero" transform="translate(-1)">
        <path id="Shape" d="m53 29c.0704765 3.6806133-.053028 7.3623836-.37 11.03-.52 5-1.82 9.26-5.07 12.25-1.6354253-.7940854-3.4224862-1.2272089-5.24-1.27 6.68-3.35 6.68-10.88 6.68-22.01.0385949-4.8202477-1.0974821-9.5773557-3.31-13.86-.7972853-1.4985126-2.1908782-2.5901639-3.8367083-3.0054312-1.6458302-.4152674-3.3905115-.1154491-4.8032917.8254312l-2.72 1.82c-2.0177633 1.3400977-4.6422367 1.3400977-6.66 0l-2.72-1.82c-1.4127802-.9408803-3.1574615-1.2406986-4.8032917-.8254312-1.6458301.4152673-3.039423 1.5069186-3.8367083 3.0054312-2.2125179 4.2826443-3.3485949 9.0397523-3.31 13.86 0 11.13 0 18.66 6.68 22.01-1.8175138.0427911-3.6045747.4759146-5.24 1.27-3.25-2.99-4.55-7.25-5.07-12.25-.316972-3.6676164-.44047653-7.3493867-.37-11.03.00073787-1.2526456.06749714-2.5043818.2-3.75 1.44-13.69 10.65-24.25 21.8-24.25s20.36 10.56 21.8 24.25c.1325029 1.2456182.1992621 2.4973544.2 3.75z" fill="#9794f2" fill-opacity="1" data-original-color="#a4c2f7ff" stroke="none" stroke-opacity="1" style=""/>
        <path id="Shape" d="m52.8 25.25c-1.44-13.69-10.65-24.25-21.8-24.25-.5 0-1 .029-1.5.072 10.466.9 18.925 11.108 20.3 24.178.1325029 1.2456182.1992621 2.4973544.2 3.75.0704765 3.6806133-.053028 7.3623836-.37 11.03-.475 4.566-1.619 8.5-4.286 11.431.7645168.1971843 1.5070022.4715957 2.216.819 3.25-2.99 4.55-7.25 5.07-12.25.316972-3.6676164.4404765-7.3493867.37-11.03-.0007379-1.2526456-.0674971-2.5043818-.2-3.75z" fill-opacity="1" data-original-color="#7facfaff" stroke="none" stroke-opacity="1" style="fill: rgb(143, 154, 239);"/>
        <path id="Shape" d="m34 55c.0338948.7189523.3631793 1.3919953.91 1.86-1.22.09-2.52.14-3.91.14s-2.69-.05-3.91-.14c.5468207-.4680047.8761052-1.1410477.91-1.86-.0644652-.8939296-.546111-1.7053175-1.3-2.19 1.31.13 2.73.19 4.3.19s2.99-.06 4.3-.19c-.753889.4846825-1.2355348 1.2960704-1.3 2.19z" fill="#9794f2" fill-opacity="1" data-original-color="#a4c2f7ff" stroke="none" stroke-opacity="1" style=""/>
        <path id="Shape" d="m49 29c0 11.13 0 18.66-6.68 22.01h-.02c-.12-.01-.25-.01-.37-.01-2.3414165-.1017091-4.6560493.5311437-6.62 1.81h-.01c-1.31.13-2.73.19-4.3.19s-2.99-.06-4.3-.19h-.01c-1.9639507-1.2788563-4.2785835-1.9117091-6.62-1.81-.13 0-.25 0-.38.01h-.01c-6.68-3.35-6.68-10.88-6.68-22.01-.0385949-4.8202477 1.0974821-9.5773557 3.31-13.86.7972853-1.4985126 2.1908782-2.5901639 3.8367083-3.0054312 1.6458302-.4152674 3.3905115-.1154491 4.8032917.8254312l2.72 1.82c2.0177633 1.3400977 4.6422367 1.3400977 6.66 0l2.72-1.82c1.4127802-.9408803 3.1574615-1.2406986 4.8032917-.8254312 1.6458301.4152673 3.039423 1.5069186 3.8367083 3.0054312 2.2125179 4.2826443 3.3485949 9.0397523 3.31 13.86z" fill="#e8edfc" fill-opacity="1" data-original-color="#e8edfcff" stroke="none" stroke-opacity="1" style=""/>
        <path id="Shape" d="m45.69 15.14c-1.305067-2.4523927-4.1196141-3.6922813-6.81-3 1.6363873.4176581 3.0201522 1.5072367 3.81 3 2.2125179 4.2826443 3.3485949 9.0397523 3.31 13.86 0 11.13 0 18.66-6.68 22.01h-.02c-.12-.01-.25-.01-.37-.01-2.3414165-.1017091-4.6560493.5311437-6.62 1.81h-.01c-.873.087-1.818.132-2.8.159.492.014.976.031 1.5.031 1.57 0 2.99-.06 4.3-.19h.01c1.9639507-1.2788563 4.2785835-1.9117091 6.62-1.81.12 0 .25 0 .37.01h.02c6.68-3.35 6.68-10.88 6.68-22.01.0385949-4.8202477-1.0974821-9.5773557-3.31-13.86z" fill="#cad9fc" fill-opacity="1" data-original-color="#cad9fcff" stroke="none" stroke-opacity="1" style=""/>
        <path id="Shape" d="m9.37 40.03h-.01c-1.99644333.4824298-4.08576917.4202681-6.05-.18-.95892636-.3454058-1.49955392-1.3617856-1.25-2.35 1.15762114-4.6828971 3.63586461-8.9347855 7.14-12.25-.13250286 1.2456182-.19926213 2.4973544-.2 3.75-.07047653 3.6806133.053028 7.3623836.37 11.03z" fill="#9794f2" fill-opacity="1" data-original-color="#a4c2f7ff" stroke="none" stroke-opacity="1" style=""/>
        <path id="Shape" d="m58.69 39.85c-1.9642308.6002681-4.0535567.6624298-6.05.18h-.01c.316972-3.6676164.4404765-7.3493867.37-11.03-.0007379-1.2526456-.0674971-2.5043818-.2-3.75 3.5041354 3.3152145 5.9823789 7.5671029 7.14 12.25.2495539.9882144-.2910736 2.0045942-1.25 2.35z" fill="#9794f2" fill-opacity="1" data-original-color="#a4c2f7ff" stroke="none" stroke-opacity="1" style=""/>
        <path id="Shape" d="m28 55c-.0338948.7189523-.3631793 1.3919953-.91 1.86-1.32 1.27-3.97 2.14-7.02 2.14-6.8 0-9.07 0-9.07-2.29 0-1.89 1.43-3.43 3.44-4.43 1.6354253-.7940854 3.4224862-1.2272089 5.24-1.27h.01c.13-.01.25-.01.38-.01 2.3414165-.1017091 4.6560493.5311437 6.62 1.81h.01c.753889.4846825 1.2355348 1.2960704 1.3 2.19z" fill="#e8edfc" fill-opacity="1" data-original-color="#e8edfcff" stroke="none" stroke-opacity="1" style=""/>
        <path id="Shape" d="m26.7 52.81h-.01c-1.9639507-1.2788563-4.2785835-1.9117091-6.62-1.81-.13 0-.25 0-.38.01h-.01c-.333.009-.665.046-1 .08 1.7925153.1181339 3.5211648.7118394 5.008 1.72h.01c.7546514.4842393 1.2370816 1.2957002 1.302 2.19-.0338948.7189523-.3631793 1.3919953-.91 1.86-1.284 1.235-3.829 2.085-6.774 2.131.825.009 1.733.009 2.754.009 3.05 0 5.7-.87 7.02-2.14.5468207-.4680047.8761052-1.1410477.91-1.86-.0644652-.8939296-.546111-1.7053175-1.3-2.19z" fill="#cad9fc" fill-opacity="1" data-original-color="#cad9fcff" stroke="none" stroke-opacity="1" style=""/>
        <path id="Shape" d="m51 56.71c0 2.29-2.27 2.29-9.07 2.29-3.04 0-5.68-.86-7.01-2.14h-.01c-.5468207-.4680047-.8761052-1.1410477-.91-1.86.0644652-.8939296.546111-1.7053175 1.3-2.19h.01c1.9639507-1.2788563 4.2785835-1.9117091 6.62-1.81.12 0 .25 0 .37.01h.02c1.8175138.0427911 3.6045747.4759146 5.24 1.27 2.01 1 3.44 2.54 3.44 4.43z" fill="#e8edfc" fill-opacity="1" data-original-color="#e8edfcff" stroke="none" stroke-opacity="1" style=""/>
        <path id="Shape" d="m47.56 52.28c-1.6354253-.7940854-3.4224862-1.2272089-5.24-1.27h-.02c-.12-.01-.25-.01-.37-.01-.5385262.0021683-1.0765793.0322085-1.612.09 1.4735115.1412696 2.91001.5442477 4.242 1.19 2.01 1 3.44 2.54 3.44 4.43 0 1.946-1.651 2.237-6.318 2.281.084 0 .164.009.248.009 6.8 0 9.07 0 9.07-2.29 0-1.89-1.43-3.43-3.44-4.43z" fill="#cad9fc" fill-opacity="1" data-original-color="#cad9fcff" stroke="none" stroke-opacity="1" style=""/>
        <circle id="Oval" cx="22" cy="24" fill="#9794f2" r="2" fill-opacity="1" data-original-color="#a4c2f7ff" stroke="none" stroke-opacity="1" style=""/>
        <circle id="Oval" cx="40" cy="24" fill="#9794f2" r="2" fill-opacity="1" data-original-color="#a4c2f7ff" stroke="none" stroke-opacity="1" style=""/>
        <path id="Shape" d="m31 33c1.9141042.0895266 3.7353186-.8298072 4.8-2.423.3635343-.5589979.2194588-1.3054501-.326-1.689l-3.374-2.22c-.6673932-.4470286-1.5386068-.4470286-2.206 0l-3.371 2.22c-.5454588.3835499-.6895343 1.1300021-.326 1.689 1.0652426 1.5941364 2.8878487 2.5135981 4.803 2.423z" fill="#e8edfc" fill-opacity="1" data-original-color="#e8edfcff" stroke="none" stroke-opacity="1" style=""/>
        <path id="Shape" d="m35.474 28.888-3.374-2.22c-.6673932-.4470286-1.5386068-.4470286-2.206 0l-.4.261 2.974 1.959c.5454588.3835499.6895343 1.1300021.326 1.689-.7656078 1.1503531-1.9493495 1.957091-3.3 2.249.4937379.1151496.9990125.173528 1.506.174 1.9141042.0895266 3.7353186-.8298072 4.8-2.423.3635343-.5589979.2194588-1.3054501-.326-1.689z" fill="#cad9fc" fill-opacity="1" data-original-color="#cad9fcff" stroke="none" stroke-opacity="1" style=""/>
        <path id="Shape" d="m11 56.71c0 2.372 2.617 2.29 9.07 2.29.051 0 .1-.005.151-.005-4.378-.034-6.221-.295-6.221-2.285 0-1.89 1.43-3.43 3.44-4.43-3.25-2.99-4.55-7.25-5.07-12.25-.9758369.1897437-1.9669358.290159-2.961.3.541 4.87 1.848 9.022 5.031 11.95-2.01 1-3.44 2.54-3.44 4.43z" fill="#ffffff" fill-opacity="1" data-original-color="#ffffffff" stroke="none" stroke-opacity="1" style=""/>
        <path id="Shape" d="m3.31 39.85c1.5120552.4739305 3.11017334.60779 4.68.392-.57212549-.0717919-1.13518296-.2031719-1.68-.392-.95892636-.3454058-1.49955392-1.3617856-1.25-2.35 1.15762114-4.6828971 3.63586461-8.9347855 7.14-12.25 1.375-13.07 9.834-23.28 20.3-24.178h.018c-1.0038915-.08450434-2.0131085-.08450434-3.017 0-10.467.898-18.926 11.108-20.301 24.178-3.50413539 3.3152145-5.98237886 7.5671029-7.14 12.25-.24955392.9882144.29107364 2.0045942 1.25 2.35z" fill="#ffffff" fill-opacity="1" data-original-color="#ffffffff" stroke="none" stroke-opacity="1" style=""/>
        <path id="Shape" d="m12.228 12.249 1.744.98c-1.2592568 2.2591033-2.2272941 4.6686124-2.881 7.171l-1.934-.507c.69654635-2.6675324 1.7284384-5.2360061 3.071-7.644z" fill="#ffffff" fill-opacity="1" data-original-color="#ffffffff" stroke="none" stroke-opacity="1" style=""/>
        <g fill="#428dff">
          <path id="Shape" d="m11.4 17.344c-.5522847.0027614-1.0022386-.4427153-1.005-.995s.4427153-1.0022386.995-1.005h.01c.5522847 0 1 .4477153 1 1s-.4477153 1-1 1z" fill="#111185" fill-opacity="1" data-original-color="#428dffff" stroke="none" stroke-opacity="1" style=""/>
          <path id="Shape" d="m2.976 40.792c1.11347984.3756127 2.28302568.5579103 3.458.539.68375062-.0097422 1.36616359-.0635203 2.043-.161.555 4.29 1.758 8 4.352 10.892-1.6737287.9676708-2.7398095 2.7207311-2.829 4.652 0 3.286 2.947 3.286 10.067 3.286 2.6292561.1302855 5.2275026-.6149344 7.388-2.119 1.145.075 2.335.119 3.545.119 1.231 0 2.431-.044 3.544-.12 2.160648 1.5046327 4.7592923 2.2502175 7.389 2.12 7.12 0 10.067 0 10.067-3.286-.0891905-1.9312689-1.1552713-3.6843292-2.829-4.652 2.594-2.887 3.8-6.6 4.352-10.892.6771673.0975198 1.3599155.1512979 2.044.161 1.1735196.0190973 2.341671-.1625174 3.454-.537 1.4494265-.5121991 2.2690504-2.0451994 1.89-3.535-1.1655682-4.7464679-3.6457855-9.0681323-7.156-12.469-1.623-14.002-11.207-24.79-22.755-24.79-1.9795302.02674621-3.9441822.34654978-5.83.949-1.8681935.62778962-3.6365699 1.52056547-5.251 2.651-3.1815111 2.26995188-5.8103466 5.22794725-7.691 8.654-.2706195.4815923-.0995923 1.0913804.382 1.362.4815923.2706195 1.0913805.0995923 1.362-.382 1.7321033-3.1621884 4.154416-5.8934852 7.087-7.991 1.4576135-1.02078868 3.0542358-1.82701394 4.741-2.394 1.6825738-.5354137 3.4345076-.82145058 5.2-.849 11.58 0 21 12.112 21 27 0 9.259-.015 17.285-4.66 22.074-.7196187-.3001318-1.4641264-.5367013-2.225-.707 4.885-4.123 4.885-11.549 4.885-21.367.0398204-4.9842596-1.1364978-9.9030339-3.427-14.33-.9303765-1.7478158-2.5562409-3.0208964-4.4761817-3.5049295s-3.9550285-.1339091-5.6028183.9639295l-2.717 1.817c-1.6814705 1.1179491-3.8695295 1.1179491-5.551 0l-2.721-1.821c-1.6478849-1.0976552-3.6830254-1.4474595-5.6028426-.9630285-1.9198172.4844309-3.5453446 1.7579382-4.4751574 3.5060285-2.291085 4.4274666-3.4674284 9.3470329-3.427 14.332 0 9.818 0 17.244 4.885 21.367-.7608736.1702987-1.5053813.4068682-2.225.707-4.645-4.789-4.66-12.815-4.66-22.074-.00495045-2.9014862.3616985-5.7916613 1.091-8.6.1010586-.3490027.0048647-.7253598-.2512644-.9830682s-.6318877-.3562139-.98150508-.2573025c-.34961733.0989114-.61807588.3796744-.70123052.7333707-.41645512 1.6080046-.71887349 3.243403-.905 4.894-3.51365706 3.4017094-5.99640482 7.7256349-7.163 12.475-.37844691 1.4875894.43982113 3.0183187 1.887 3.53zm55.993-3.054c.1290552.4901399-.1373257.9977387-.614 1.17-1.4972299.4639811-3.08379.5627339-4.627.288.272-3.162.272-6.588.272-10.196 0-.353-.011-.7-.021-1.053 2.3964015 2.8350013 4.1042825 6.186076 4.99 9.791zm-46.969 18.976c0-2.778 4.251-4.714 8.067-4.714 3.968 0 6.933 1.584 6.933 3s-2.965 3-6.933 3c-6.642 0-8.067-.111-8.067-1.286zm16.846-.76c.0998788-.3082387.1518178-.6299905.154-.954-.0001648-.3557065-.0610388-.7087757-.18-1.044.69.029 1.412.044 2.18.044s1.49-.015 2.18-.044c-.1189612.3352243-.1798352.6882935-.18 1.044.0021822.3240095.0541212.6457613.154.954-1.422.056-2.886.056-4.308 0zm13.087 2.046c-3.968 0-6.933-1.584-6.933-3s2.965-3 6.933-3c3.816 0 8.067 1.936 8.067 4.714 0 1.175-1.425 1.286-8.067 1.286zm-27.933-29c-.0404291-4.6565834 1.0555798-9.2527499 3.193-13.39.6646685-1.2484413 1.8257861-2.158018 3.1970528-2.5044533s2.8250721-.0974898 4.0029472.6854533l2.723 1.822c2.352924 1.5659945 5.416076 1.5659945 7.769 0l2.715-1.821c1.1777093-.7827796 2.6312098-1.0318447 4.0023452-.6858235 1.3711355.3460213 2.5324028 1.2549522 3.1976548 2.5028235 2.1397394 4.1370318 3.2381474 8.7335263 3.2 13.391 0 10.741-.006 17.874-5.926 21.005-.047 0-.094-.005-.141-.005-2.4708676-.098013-4.9148858.5425844-7.02 1.84-1.179.106-2.46.16-3.913.16s-2.734-.054-3.913-.16c-2.1051142-1.2974156-4.5491324-1.938013-7.02-1.84-.045 0-.09 0-.134 0-5.923-3.126-5.933-10.258-5.933-21zm-10.969 8.741c.88597997-3.6119241 2.59747482-6.9691924 5-9.808-.008.356-.031.71-.031 1.067 0 3.608 0 7.034.272 10.2-1.54458175.2761881-3.13294041.1767227-4.631-.29-.47594417-.1722585-.7409262-.6800683-.61-1.169z" fill="#111185" fill-opacity="1" data-original-color="#428dffff" stroke="none" stroke-opacity="1" style=""/>
          <path id="Shape" d="m25 24c0-1.6568542-1.3431458-3-3-3s-3 1.3431458-3 3 1.3431458 3 3 3 3-1.3431458 3-3zm-4 0c0-.5522847.4477153-1 1-1s1 .4477153 1 1-.4477153 1-1 1-1-.4477153-1-1z" fill="#111185" fill-opacity="1" data-original-color="#428dffff" stroke="none" stroke-opacity="1" style=""/>
          <path id="Shape" d="m40 27c1.6568542 0 3-1.3431458 3-3s-1.3431458-3-3-3-3 1.3431458-3 3 1.3431458 3 3 3zm0-4c.5522847 0 1 .4477153 1 1s-.4477153 1-1 1-1-.4477153-1-1 .4477153-1 1-1z" fill="#111185" fill-opacity="1" data-original-color="#428dffff" stroke="none" stroke-opacity="1" style=""/>
          <path id="Shape" d="m21 31h2c.5522847 0 1-.4477153 1-1s-.4477153-1-1-1h-2c-.5522847 0-1 .4477153-1 1s.4477153 1 1 1z" fill="#111185" fill-opacity="1" data-original-color="#428dffff" stroke="none" stroke-opacity="1" style=""/>
          <path id="Shape" d="m41 29h-2c-.5522847 0-1 .4477153-1 1s.4477153 1 1 1h2c.5522847 0 1-.4477153 1-1s-.4477153-1-1-1z" fill="#111185" fill-opacity="1" data-original-color="#428dffff" stroke="none" stroke-opacity="1" style=""/>
          <path id="Shape" d="m31 34c2.2479505.0855804 4.3795827-1.0002955 5.632-2.869.325731-.4963205.4415156-1.1014927.322-1.683-.1137164-.5689959-.4476173-1.070027-.929-1.394l-3.373-2.222c-.9983741-.6686957-2.3016259-.6686957-3.3 0l-3.371 2.22c-.4819778.324019-.8162816.8254747-.93 1.395-.1193638.5813785-.0039732 1.1863703.321 1.683 1.2518224 1.8673958 3.3813856 2.9533671 5.628 2.87zm-3.924-4.276 3.371-2.224c.3332189-.227454.7717811-.227454 1.105 0l3.373 2.222c.0376161.030892.062245.0747957.069.123.0144347.0599371.0047378.1231462-.027.176-.8810854 1.312773-2.3882833 2.0646622-3.967 1.979-1.5783263.086099-3.0854386-.6649877-3.967-1.977-.0317378-.0528538-.0414347-.1160629-.027-.176.0067224-.0484509.0317774-.0924761.07-.123z" fill="#111185" fill-opacity="1" data-original-color="#428dffff" stroke="none" stroke-opacity="1" style=""/>
        </g>
      </g>
    </g>
  </g>
</svg>