<svg id="Layer_1" enable-background="new 0 0 48 48" viewBox="0 0 48 48" xmlns="http://www.w3.org/2000/svg" width="300" height="300" version="1.1" xmlns:xlink="http://www.w3.org/1999/xlink" xmlns:svgjs="http://svgjs.dev/svgjs"><g width="100%" height="100%" transform="matrix(1,0,0,1,0,0)"><g><path d="m24 2c-12.1308594 0-22 9.8691406-22 22s9.8691406 22 22 22 22-9.8691406 22-22-9.8691406-22-22-22z" fill="#fc64ab" fill-opacity="1" data-original-color="#bddbffff" stroke="none" stroke-opacity="1"/><path d="m24 2c-12.1308594 0-22 9.8691406-22 22s9.8691406 22 22 22 22-9.8691406 22-22-9.8691406-22-22-22zm0 40c-9.925293 0-18-8.074707-18-18s8.074707-18 18-18c9.9248047 0 18 8.074707 18 18s-8.0751953 18-18 18zm9.1923828-24.3642578-6.3642578 6.3642578 6.3642578 6.3642578c.78125.7807617.78125 2.0473633 0 2.828125-.390625.390625-.9023438.5859375-1.4140625.5859375s-1.0234375-.1953125-1.4140625-.5859375l-6.3642578-6.3642578-6.3642578 6.3642578c-.3901367.390625-.9023438.5859375-1.4140625.5859375s-1.0239258-.1953125-1.4140625-.5859375c-.78125-.7807617-.78125-2.0473633 0-2.828125l6.3642578-6.3642578-6.3642578-6.3642578c-.78125-.7807617-.78125-2.0473633 0-2.828125.7802734-.78125 2.0478516-.78125 2.828125 0l6.3642578 6.3642578 6.3642578-6.3642578c.78125-.78125 2.046875-.78125 2.828125 0 .78125.7807617.78125 2.0473633 0 2.828125z" fill="#000000" fill-opacity="1" data-original-color="#57a4ffff" stroke="none" stroke-opacity="1"/></g></g></svg>