<svg height="300" viewBox="0 0 24 24" width="300" xmlns="http://www.w3.org/2000/svg" version="1.1" xmlns:xlink="http://www.w3.org/1999/xlink" xmlns:svgjs="http://svgjs.dev/svgjs"><g width="100%" height="100%" transform="matrix(1,0,0,1,0,0)"><g id="Monochrome"><circle cx="12" cy="12" fill="#c3adeb" r="10" fill-opacity="1" data-original-color="#dcecffff" stroke="none" stroke-opacity="1"/><path d="m12 1.25a10.75 10.75 0 1 0 10.75 10.75 10.76 10.76 0 0 0 -10.75-10.75zm0 20a9.25 9.25 0 1 1 9.25-9.25 9.26 9.26 0 0 1 -9.25 9.25zm3.53-11.72-2.47 2.47 2.47 2.47a.75.75 0 0 1 0 1.06.75.75 0 0 1 -1.06 0l-2.47-2.47-2.47 2.47a.75.75 0 0 1 -1.06 0 .75.75 0 0 1 0-1.06l2.47-2.47-2.47-2.47a.75.75 0 0 1 1.06-1.06l2.47 2.47 2.47-2.47a.75.75 0 0 1 1.06 1.06z" fill="#000000" fill-opacity="1" data-original-color="#1f6cc9ff" stroke="none" stroke-opacity="1"/></g></g></svg>