<?xml version="1.0" encoding="UTF-8" standalone="no"?>
<svg
   width="152.63066"
   zoomAndPan="magnify"
   viewBox="0 0 114.473 98.687048"
   height="131.58273"
   preserveAspectRatio="xMidYMid"
   version="1.0"
   id="svg15"
   sodipodi:docname="pink-logo-es.svg"
   xmlns:inkscape="http://www.inkscape.org/namespaces/inkscape"
   xmlns:sodipodi="http://sodipodi.sourceforge.net/DTD/sodipodi-0.dtd"
   xmlns="http://www.w3.org/2000/svg"
   xmlns:svg="http://www.w3.org/2000/svg">
  <sodipodi:namedview
     id="namedview15"
     pagecolor="#ffffff"
     bordercolor="#000000"
     borderopacity="0.25"
     inkscape:showpageshadow="2"
     inkscape:pageopacity="0.0"
     inkscape:pagecheckerboard="0"
     inkscape:deskcolor="#d1d1d1">
    <inkscape:page
       x="0"
       y="0"
       width="114.473"
       height="98.68705"
       id="page2"
       margin="0"
       bleed="0" />
  </sodipodi:namedview>
  <defs
     id="defs1">
    <clipPath
       id="a63e45694c">
      <rect
         x="0"
         width="120"
         y="0"
         height="212"
         id="rect1" />
    </clipPath>
  </defs>
  <g
     transform="translate(-2.4135468,-62.13989)"
     id="g15">
    <g
       clip-path="url(#a63e45694c)"
       id="g14">
      <g
         fill="#000000"
         fill-opacity="1"
         id="g4">
        <g
           transform="translate(11.392396,183.5932)"
           id="g3">
          <g
             id="g2">
            <path
               d="m 21.75,-26.109375 c -2.074219,0.148437 -4.109375,0.289063 -6.109375,0.421875 -2,0.136719 -4.039063,0.136719 -6.109375,0 -2.34375,0 -4.449219,-0.722656 -6.3125,-2.171875 -1.867188,-1.457031 -2.871094,-3.566406 -3.015625,-6.328125 -0.2695312,-3.863281 1.59375,-6.625 5.59375,-8.28125 3.59375,-1.519531 7.320313,-2.554688 11.1875,-3.109375 3.175781,-0.6875 6.351563,-1.269531 9.53125,-1.75 3.175781,-0.488281 6.351563,-0.875 9.53125,-1.15625 2.757813,-0.269531 5.414063,-0.335937 7.96875,-0.203125 2.5625,0.136719 5.15625,0.34375 7.78125,0.625 2.34375,0.273438 4.304687,1.546875 5.890625,3.828125 1.59375,2.28125 2.320312,4.59375 2.1875,6.9375 -0.136719,2.625 -1.210938,4.90625 -3.21875,6.84375 -2,1.929687 -4.242188,3.03125 -6.71875,3.3125 -4.699219,0.136719 -9.398438,0.34375 -14.09375,0.625 -4.699219,0.273437 -9.398438,0.546875 -14.09375,0.828125 0,-0.132812 0,-0.203125 0,-0.203125 0,0 0,-0.07031 0,-0.21875 z m 33.984375,-13.25 c -0.136719,-0.28125 -0.203125,-0.59375 -0.203125,-0.9375 0,-0.34375 -0.140625,-0.722656 -0.421875,-1.140625 -0.136719,-0.28125 -0.34375,-0.554688 -0.625,-0.828125 -0.273437,-0.28125 -0.546875,-0.554687 -0.828125,-0.828125 -0.136719,0.273438 -0.273438,0.585938 -0.40625,0.9375 -0.136719,0.34375 -0.203125,0.652344 -0.203125,0.921875 0,1.523437 -0.246094,2.976563 -0.734375,4.359375 -0.480469,1.375 -1.34375,2.617188 -2.59375,3.71875 -0.136719,0.148438 -0.273438,0.390625 -0.40625,0.734375 -0.136719,0.34375 -0.277344,0.652344 -0.421875,0.921875 0.832031,0.28125 1.457031,0.421875 1.875,0.421875 3.3125,-1.101563 4.96875,-3.863281 4.96875,-8.28125 z m -43.296875,10.5625 c -0.417969,-0.28125 -0.699219,-0.519531 -0.84375,-0.71875 -0.136719,-0.207031 -0.339844,-0.382813 -0.609375,-0.53125 -2.625,-1.925781 -4.148437,-4.34375 -4.5625,-7.25 C 6.148438,-37.847656 5.875,-38.332031 5.59375,-38.75 c -0.136719,0.148438 -0.308594,0.359375 -0.515625,0.640625 -0.210937,0.273437 -0.382813,0.542969 -0.515625,0.8125 -0.417969,1.523437 -0.386719,2.9375 0.09375,4.25 0.488281,1.3125 1.21875,2.523437 2.1875,3.625 0.6875,0.554687 1.515625,0.828125 2.484375,0.828125 0.96875,0 2.003906,-0.06641 3.109375,-0.203125 z M 44.125,-112.29688 c 1.519531,0 3.003906,0.14063 4.453125,0.42188 1.457031,0.27344 2.875,0.89062 4.25,1.85937 3.320313,2.21094 4.84375,5.10938 4.5625,8.70313 -0.28125,4.148438 -2.421875,6.90625 -6.421875,8.28125 -1.792969,0.554688 -3.554688,0.96875 -5.28125,1.25 -1.730469,0.273438 -3.5625,0.546875 -5.5,0.828125 -2.210938,0.417969 -4.386719,0.796875 -6.53125,1.140625 -2.136719,0.34375 -4.308594,0.585938 -6.515625,0.71875 -2.34375,0.136719 -4.726563,0.382812 -7.140625,0.734375 -2.417969,0.34375 -4.804688,0.652344 -7.15625,0.921875 -2.898438,0.417969 -5.3125,-0.203125 -7.25,-1.859375 -1.9375,-1.65625 -3.109375,-3.9375 -3.515625,-6.84375 C 1.929688,-97.515625 2.238281,-99.132812 3,-101 c 0.757812,-1.86328 1.96875,-3.21094 3.625,-4.04688 2.207031,-1.23828 4.484375,-2.20312 6.828125,-2.89062 2.351563,-0.69531 4.773437,-1.17969 7.265625,-1.45313 2.757812,-0.41406 5.519531,-0.83203 8.28125,-1.25 2.769531,-0.41406 5.46875,-0.75781 8.09375,-1.03125 1.101562,-0.28125 2.273438,-0.42187 3.515625,-0.42187 1.238281,0 2.410156,-0.0664 3.515625,-0.20313 z M 12.4375,-90.75 c -0.96875,-1.519531 -1.976562,-3.035156 -3.015625,-4.546875 -1.03125,-1.519531 -2.03125,-2.972656 -3,-4.359375 -1.242187,1.242188 -1.171875,3.039062 0.203125,5.390625 1.25,2.761719 3.1875,3.933594 5.8125,3.515625 z m 34.59375,-4.96875 c 0.28125,0.136719 0.625,0.203125 1.03125,0.203125 1.65625,-0.269531 3.101562,-1.441406 4.34375,-3.515625 1.25,-2.07031 1.53125,-3.86719 0.84375,-5.39063 -0.136719,-0.13281 -0.277344,-0.30468 -0.421875,-0.51562 -0.136719,-0.20703 -0.339844,-0.24219 -0.609375,-0.10938 -0.5625,0 -0.84375,0.27735 -0.84375,0.82813 -0.40625,3.17969 -1.789062,5.804688 -4.140625,7.875 -0.136719,0 -0.171875,0.07422 -0.109375,0.21875 0.07031,0.136719 0.03906,0.273438 -0.09375,0.40625 z m -44.953125,32.9375 c 0,-4.414062 1.722656,-7.316406 5.171875,-8.703125 4.96875,-1.925781 10.148438,-2.960937 15.546875,-3.109375 C 28.316406,-75 33.5625,-75.617188 38.53125,-76.453125 c 2.769531,-0.550781 5.5,0.246094 8.1875,2.390625 2.695312,2.136719 3.972656,4.585938 3.828125,7.34375 -0.273437,4.980469 -3.101563,7.949219 -8.484375,8.90625 -1.9375,0.417969 -3.945312,0.699219 -6.015625,0.84375 -2.074219,0.136719 -4.074219,0.339844 -6,0.609375 -1.9375,0.148437 -3.839844,0.324219 -5.703125,0.53125 -1.867188,0.199219 -3.765625,0.371094 -5.703125,0.515625 -2.480469,0 -5.101563,-0.207031 -7.859375,-0.625 -0.835938,-0.132812 -1.699219,-0.304688 -2.59375,-0.515625 -0.898438,-0.207031 -1.761719,-0.519531 -2.59375,-0.9375 -1.242188,-0.6875 -2.136719,-1.546875 -2.6875,-2.578125 -0.554688,-1.039062 -0.828125,-1.976562 -0.828125,-2.8125 z m 42.875,-9.3125 c 0.144531,4.136719 -1.167969,7.867188 -3.9375,11.1875 2.625,0.273438 4.421875,-0.972656 5.390625,-3.734375 0.550781,-1.382813 0.722656,-2.765625 0.515625,-4.140625 -0.210937,-1.382812 -0.867187,-2.488281 -1.96875,-3.3125 z M 7.875,-68.375 c -2.074219,1.804688 -2.492188,4.015625 -1.25,6.640625 1.101562,2.480469 2.96875,3.511719 5.59375,3.09375 -1.375,-1.375 -2.480469,-2.820313 -3.3125,-4.34375 C 8.082031,-64.503906 7.738281,-66.300781 7.875,-68.375 Z m 0,0"
               id="path1" />
          </g>
        </g>
      </g>
      <g
         fill="#000000"
         fill-opacity="1"
         id="g7">
        <g
           transform="translate(76.857224,183.5932)"
           id="g6">
          <g
             id="g5">
            <path
               d="m 17.203125,-22.796875 c -4.5625,0.28125 -8.089844,-1.375 -10.578125,-4.96875 C 5.25,-29.835938 4.835938,-32.1875 5.390625,-34.8125 c 0.550781,-2.625 1.929687,-4.691406 4.140625,-6.203125 1.101562,-0.832031 2.273438,-1.628906 3.515625,-2.390625 1.25,-0.757812 2.425781,-1.550781 3.53125,-2.375 1.65625,-1.113281 2.484375,-2.460938 2.484375,-4.046875 0,-1.59375 -0.828125,-2.941406 -2.484375,-4.046875 -1.105469,-0.6875 -2.210937,-1.335938 -3.3125,-1.953125 -1.105469,-0.625 -2.214844,-1.210937 -3.328125,-1.765625 -5.242188,-3.320312 -8.414062,-8.085938 -9.515625,-14.296875 -0.695313,-4.832031 -0.257813,-9.25 1.328125,-13.25 1.59375,-4.007813 3.703125,-7.8125 6.328125,-11.40625 2.351563,-3.039063 4.976563,-5.664065 7.875,-7.875005 2.894531,-2.20703 6.140625,-3.86328 9.734375,-4.96875 2.070312,-0.69531 4.070312,-0.90625 6,-0.625 1.9375,0.27344 3.664062,1.16797 5.1875,2.6875 2.351562,2.21094 3.390625,4.76563 3.109375,7.67188 -0.273437,2.898438 -1.792969,5.179688 -4.5625,6.84375 -5.242187,3.3125 -8.484375,7.9375 -9.734375,13.875 -0.417969,1.386719 -0.07031,2.558594 1.046875,3.515625 2.207031,1.804687 4.207031,3.703125 6,5.703125 1.789063,2 3.3125,4.3125 4.5625,6.9375 2.34375,4.980469 3.171875,10.476562 2.484375,16.484375 -0.6875,6 -3.105469,11.140625 -7.25,15.421875 -1.804688,1.804688 -3.601562,3.398438 -5.390625,4.78125 -1.792969,1.375 -3.933594,2.339844 -6.421875,2.890625 C 20.164062,-23.066406 19.613281,-23 19.0625,-23 c -0.554688,0 -1.171875,0.07031 -1.859375,0.203125 z m -4.5625,-41.4375 c -1.242187,-2.34375 -2.417969,-4.582031 -3.53125,-6.71875 -1.105469,-2.144531 -1.585937,-4.53125 -1.4375,-7.15625 0.132813,-2.488281 0.582031,-4.90625 1.34375,-7.25 0.757813,-2.351563 1.828125,-4.632813 3.203125,-6.84375 -2.210938,0.417969 -4.039062,2.320313 -5.484375,5.703125 -1.449219,3.386719 -2.105469,6.667969 -1.96875,9.84375 0.132813,2.898438 0.992187,5.65625 2.578125,8.28125 1.59375,2.625 3.359375,4.007812 5.296875,4.140625 z M 10.5625,-35.21875 c -0.136719,0 -0.277344,0 -0.421875,0 -0.136719,0 -0.273437,0 -0.40625,0 0,0.554688 -0.039063,1.074219 -0.109375,1.5625 -0.0625,0.480469 -0.027344,0.921875 0.109375,1.328125 0.695313,3.59375 3.046875,5.601563 7.046875,6.015625 0.6875,0 1.304688,-0.101562 1.859375,-0.3125 0.550781,-0.207031 1.101563,-0.378906 1.65625,-0.515625 -0.40625,-0.28125 -0.855469,-0.59375 -1.34375,-0.9375 -0.480469,-0.34375 -0.996094,-0.582031 -1.546875,-0.71875 -1.386719,-0.550781 -2.699219,-1.171875 -3.9375,-1.859375 -1.242188,-0.695312 -2,-1.941406 -2.28125,-3.734375 0,-0.132813 -0.210938,-0.410156 -0.625,-0.828125 z m 24.03125,-68.375 c -0.824219,1.65625 -1.617188,3.21484 -2.375,4.671875 -0.761719,1.449219 -1.558594,2.929687 -2.390625,4.4375 0.144531,0.148437 0.25,0.257813 0.3125,0.328125 0.07031,0.0625 0.175781,0.164062 0.3125,0.296875 1.101563,-0.414063 1.96875,-1.070313 2.59375,-1.96875 0.625,-0.894531 1.140625,-1.828125 1.546875,-2.796875 0.414062,-0.6875 0.691406,-1.44141 0.828125,-2.26563 0.144531,-0.83203 -0.132813,-1.73437 -0.828125,-2.70312 z m 0,0"
               id="path4" />
          </g>
        </g>
      </g>
      <g
         fill="#fc64ab"
         fill-opacity="1"
         id="g10">
        <g
           transform="translate(2.235967,174.43677)"
           id="g9">
          <g
             id="g8">
            <path
               d="m 21.75,-26.109375 c -2.074219,0.148437 -4.109375,0.289063 -6.109375,0.421875 -2,0.136719 -4.039063,0.136719 -6.109375,0 -2.34375,0 -4.449219,-0.722656 -6.3125,-2.171875 -1.867188,-1.457031 -2.871094,-3.566406 -3.015625,-6.328125 -0.2695312,-3.863281 1.59375,-6.625 5.59375,-8.28125 3.59375,-1.519531 7.320313,-2.554688 11.1875,-3.109375 3.175781,-0.6875 6.351563,-1.269531 9.53125,-1.75 3.175781,-0.488281 6.351563,-0.875 9.53125,-1.15625 2.757813,-0.269531 5.414063,-0.335937 7.96875,-0.203125 2.5625,0.136719 5.15625,0.34375 7.78125,0.625 2.34375,0.273438 4.304687,1.546875 5.890625,3.828125 1.59375,2.28125 2.320312,4.59375 2.1875,6.9375 -0.136719,2.625 -1.210938,4.90625 -3.21875,6.84375 -2,1.929687 -4.242188,3.03125 -6.71875,3.3125 -4.699219,0.136719 -9.398438,0.34375 -14.09375,0.625 -4.699219,0.273437 -9.398438,0.546875 -14.09375,0.828125 0,-0.132812 0,-0.203125 0,-0.203125 0,0 0,-0.07031 0,-0.21875 z m 33.984375,-13.25 c -0.136719,-0.28125 -0.203125,-0.59375 -0.203125,-0.9375 0,-0.34375 -0.140625,-0.722656 -0.421875,-1.140625 -0.136719,-0.28125 -0.34375,-0.554688 -0.625,-0.828125 -0.273437,-0.28125 -0.546875,-0.554687 -0.828125,-0.828125 -0.136719,0.273438 -0.273438,0.585938 -0.40625,0.9375 -0.136719,0.34375 -0.203125,0.652344 -0.203125,0.921875 0,1.523437 -0.246094,2.976563 -0.734375,4.359375 -0.480469,1.375 -1.34375,2.617188 -2.59375,3.71875 -0.136719,0.148438 -0.273438,0.390625 -0.40625,0.734375 -0.136719,0.34375 -0.277344,0.652344 -0.421875,0.921875 0.832031,0.28125 1.457031,0.421875 1.875,0.421875 3.3125,-1.101563 4.96875,-3.863281 4.96875,-8.28125 z m -43.296875,10.5625 c -0.417969,-0.28125 -0.699219,-0.519531 -0.84375,-0.71875 -0.136719,-0.207031 -0.339844,-0.382813 -0.609375,-0.53125 -2.625,-1.925781 -4.148437,-4.34375 -4.5625,-7.25 C 6.148438,-37.847656 5.875,-38.332031 5.59375,-38.75 c -0.136719,0.148438 -0.308594,0.359375 -0.515625,0.640625 -0.210937,0.273437 -0.382813,0.542969 -0.515625,0.8125 -0.417969,1.523437 -0.386719,2.9375 0.09375,4.25 0.488281,1.3125 1.21875,2.523437 2.1875,3.625 0.6875,0.554687 1.515625,0.828125 2.484375,0.828125 0.96875,0 2.003906,-0.06641 3.109375,-0.203125 z M 44.125,-112.29688 c 1.519531,0 3.003906,0.14063 4.453125,0.42188 1.457031,0.27344 2.875,0.89062 4.25,1.85937 3.320313,2.21094 4.84375,5.10938 4.5625,8.70313 -0.28125,4.148438 -2.421875,6.90625 -6.421875,8.28125 -1.792969,0.554688 -3.554688,0.96875 -5.28125,1.25 -1.730469,0.273438 -3.5625,0.546875 -5.5,0.828125 -2.210938,0.417969 -4.386719,0.796875 -6.53125,1.140625 -2.136719,0.34375 -4.308594,0.585938 -6.515625,0.71875 -2.34375,0.136719 -4.726563,0.382812 -7.140625,0.734375 -2.417969,0.34375 -4.804688,0.652344 -7.15625,0.921875 -2.898438,0.417969 -5.3125,-0.203125 -7.25,-1.859375 -1.9375,-1.65625 -3.109375,-3.9375 -3.515625,-6.84375 C 1.929688,-97.515625 2.238281,-99.132812 3,-101 c 0.757812,-1.86328 1.96875,-3.21094 3.625,-4.04688 2.207031,-1.23828 4.484375,-2.20312 6.828125,-2.89062 2.351563,-0.69531 4.773437,-1.17969 7.265625,-1.45313 2.757812,-0.41406 5.519531,-0.83203 8.28125,-1.25 2.769531,-0.41406 5.46875,-0.75781 8.09375,-1.03125 1.101562,-0.28125 2.273438,-0.42187 3.515625,-0.42187 1.238281,0 2.410156,-0.0664 3.515625,-0.20313 z M 12.4375,-90.75 c -0.96875,-1.519531 -1.976562,-3.035156 -3.015625,-4.546875 -1.03125,-1.519531 -2.03125,-2.972656 -3,-4.359375 -1.242187,1.242188 -1.171875,3.039062 0.203125,5.390625 1.25,2.761719 3.1875,3.933594 5.8125,3.515625 z m 34.59375,-4.96875 c 0.28125,0.136719 0.625,0.203125 1.03125,0.203125 1.65625,-0.269531 3.101562,-1.441406 4.34375,-3.515625 1.25,-2.07031 1.53125,-3.86719 0.84375,-5.39063 -0.136719,-0.13281 -0.277344,-0.30468 -0.421875,-0.51562 -0.136719,-0.20703 -0.339844,-0.24219 -0.609375,-0.10938 -0.5625,0 -0.84375,0.27735 -0.84375,0.82813 -0.40625,3.17969 -1.789062,5.804688 -4.140625,7.875 -0.136719,0 -0.171875,0.07422 -0.109375,0.21875 0.07031,0.136719 0.03906,0.273438 -0.09375,0.40625 z m -44.953125,32.9375 c 0,-4.414062 1.722656,-7.316406 5.171875,-8.703125 4.96875,-1.925781 10.148438,-2.960937 15.546875,-3.109375 C 28.316406,-75 33.5625,-75.617188 38.53125,-76.453125 c 2.769531,-0.550781 5.5,0.246094 8.1875,2.390625 2.695312,2.136719 3.972656,4.585938 3.828125,7.34375 -0.273437,4.980469 -3.101563,7.949219 -8.484375,8.90625 -1.9375,0.417969 -3.945312,0.699219 -6.015625,0.84375 -2.074219,0.136719 -4.074219,0.339844 -6,0.609375 -1.9375,0.148437 -3.839844,0.324219 -5.703125,0.53125 -1.867188,0.199219 -3.765625,0.371094 -5.703125,0.515625 -2.480469,0 -5.101563,-0.207031 -7.859375,-0.625 -0.835938,-0.132812 -1.699219,-0.304688 -2.59375,-0.515625 -0.898438,-0.207031 -1.761719,-0.519531 -2.59375,-0.9375 -1.242188,-0.6875 -2.136719,-1.546875 -2.6875,-2.578125 -0.554688,-1.039062 -0.828125,-1.976562 -0.828125,-2.8125 z m 42.875,-9.3125 c 0.144531,4.136719 -1.167969,7.867188 -3.9375,11.1875 2.625,0.273438 4.421875,-0.972656 5.390625,-3.734375 0.550781,-1.382813 0.722656,-2.765625 0.515625,-4.140625 -0.210937,-1.382812 -0.867187,-2.488281 -1.96875,-3.3125 z M 7.875,-68.375 c -2.074219,1.804688 -2.492188,4.015625 -1.25,6.640625 1.101562,2.480469 2.96875,3.511719 5.59375,3.09375 -1.375,-1.375 -2.480469,-2.820313 -3.3125,-4.34375 C 8.082031,-64.503906 7.738281,-66.300781 7.875,-68.375 Z m 0,0"
               id="path7" />
          </g>
        </g>
      </g>
      <g
         fill="#fc64ab"
         fill-opacity="1"
         id="g13">
        <g
           transform="translate(67.700795,174.43677)"
           id="g12">
          <g
             id="g11">
            <path
               d="m 17.203125,-22.796875 c -4.5625,0.28125 -8.089844,-1.375 -10.578125,-4.96875 C 5.25,-29.835938 4.835938,-32.1875 5.390625,-34.8125 c 0.550781,-2.625 1.929687,-4.691406 4.140625,-6.203125 1.101562,-0.832031 2.273438,-1.628906 3.515625,-2.390625 1.25,-0.757812 2.425781,-1.550781 3.53125,-2.375 1.65625,-1.113281 2.484375,-2.460938 2.484375,-4.046875 0,-1.59375 -0.828125,-2.941406 -2.484375,-4.046875 -1.105469,-0.6875 -2.210937,-1.335938 -3.3125,-1.953125 -1.105469,-0.625 -2.214844,-1.210937 -3.328125,-1.765625 -5.242188,-3.320312 -8.414062,-8.085938 -9.515625,-14.296875 -0.695313,-4.832031 -0.257813,-9.25 1.328125,-13.25 1.59375,-4.007813 3.703125,-7.8125 6.328125,-11.40625 2.351563,-3.039063 4.976563,-5.664065 7.875,-7.875005 2.894531,-2.20703 6.140625,-3.86328 9.734375,-4.96875 2.070312,-0.69531 4.070312,-0.90625 6,-0.625 1.9375,0.27344 3.664062,1.16797 5.1875,2.6875 2.351562,2.21094 3.390625,4.76563 3.109375,7.67188 -0.273437,2.898438 -1.792969,5.179688 -4.5625,6.84375 -5.242187,3.3125 -8.484375,7.9375 -9.734375,13.875 -0.417969,1.386719 -0.07031,2.558594 1.046875,3.515625 2.207031,1.804687 4.207031,3.703125 6,5.703125 1.789063,2 3.3125,4.3125 4.5625,6.9375 2.34375,4.980469 3.171875,10.476562 2.484375,16.484375 -0.6875,6 -3.105469,11.140625 -7.25,15.421875 -1.804688,1.804688 -3.601562,3.398438 -5.390625,4.78125 -1.792969,1.375 -3.933594,2.339844 -6.421875,2.890625 C 20.164062,-23.066406 19.613281,-23 19.0625,-23 c -0.554688,0 -1.171875,0.07031 -1.859375,0.203125 z m -4.5625,-41.4375 c -1.242187,-2.34375 -2.417969,-4.582031 -3.53125,-6.71875 -1.105469,-2.144531 -1.585937,-4.53125 -1.4375,-7.15625 0.132813,-2.488281 0.582031,-4.90625 1.34375,-7.25 0.757813,-2.351563 1.828125,-4.632813 3.203125,-6.84375 -2.210938,0.417969 -4.039062,2.320313 -5.484375,5.703125 -1.449219,3.386719 -2.105469,6.667969 -1.96875,9.84375 0.132813,2.898438 0.992187,5.65625 2.578125,8.28125 1.59375,2.625 3.359375,4.007812 5.296875,4.140625 z M 10.5625,-35.21875 c -0.136719,0 -0.277344,0 -0.421875,0 -0.136719,0 -0.273437,0 -0.40625,0 0,0.554688 -0.039063,1.074219 -0.109375,1.5625 -0.0625,0.480469 -0.027344,0.921875 0.109375,1.328125 0.695313,3.59375 3.046875,5.601563 7.046875,6.015625 0.6875,0 1.304688,-0.101562 1.859375,-0.3125 0.550781,-0.207031 1.101563,-0.378906 1.65625,-0.515625 -0.40625,-0.28125 -0.855469,-0.59375 -1.34375,-0.9375 -0.480469,-0.34375 -0.996094,-0.582031 -1.546875,-0.71875 -1.386719,-0.550781 -2.699219,-1.171875 -3.9375,-1.859375 -1.242188,-0.695312 -2,-1.941406 -2.28125,-3.734375 0,-0.132813 -0.210938,-0.410156 -0.625,-0.828125 z m 24.03125,-68.375 c -0.824219,1.65625 -1.617188,3.21484 -2.375,4.671875 -0.761719,1.449219 -1.558594,2.929687 -2.390625,4.4375 0.144531,0.148437 0.25,0.257813 0.3125,0.328125 0.07031,0.0625 0.175781,0.164062 0.3125,0.296875 1.101563,-0.414063 1.96875,-1.070313 2.59375,-1.96875 0.625,-0.894531 1.140625,-1.828125 1.546875,-2.796875 0.414062,-0.6875 0.691406,-1.44141 0.828125,-2.26563 0.144531,-0.83203 -0.132813,-1.73437 -0.828125,-2.70312 z m 0,0"
               id="path10" />
          </g>
        </g>
      </g>
    </g>
  </g>
</svg>
