<?xml version="1.0" encoding="UTF-8" standalone="no"?>
<svg
   width="485.73657"
   zoomAndPan="magnify"
   viewBox="0 0 364.30243 57.030921"
   height="76.041229"
   preserveAspectRatio="xMidYMid"
   version="1.0"
   id="svg57"
   xmlns="http://www.w3.org/2000/svg"
   xmlns:svg="http://www.w3.org/2000/svg">
  <defs
     id="defs1">
    <clipPath
       id="2c26919d8d">
      <rect
         x="0"
         width="372"
         y="0"
         height="110"
         id="rect1" />
    </clipPath>
  </defs>
  <g
     transform="translate(-6.2098233,-43.45493)"
     id="g57">
    <g
       clip-path="url(#2c26919d8d)"
       id="g56">
      <g
         fill="#000000"
         fill-opacity="1"
         id="g4">
        <g
           transform="translate(7.412623,85.935074)"
           id="g3">
          <g
             id="g2">
            <path
               d="m 21.15625,0.890625 c 9.207031,0 15.8125,-5.046875 17.820312,-12.769531 h -9.058593 c -1.335938,3.414062 -4.230469,5.496094 -8.6875,5.496094 -5.417969,0 -9.203125,-3.121094 -9.945313,-9.875 h 28.65625 v -2.226563 c 0,-12.175781 -7.203125,-20.714844 -18.933594,-20.714844 -11.355468,0 -18.929687,8.019531 -18.929687,20.046875 0,12.25 7.796875,20.042969 19.078125,20.042969 z m -9.796875,-23.683594 c 0.890625,-6.234375 4.601563,-9.128906 9.574219,-9.128906 5.570312,0 8.910156,3.710937 9.652344,9.128906 z m 0,0"
               id="path1" />
          </g>
        </g>
      </g>
      <g
         fill="#000000"
         fill-opacity="1"
         id="g7">
        <g
           transform="translate(44.3825,85.935074)"
           id="g6">
          <g
             id="g5">
            <path
               d="m 47.511719,-39.199219 c -5.34375,0 -9.351563,3.046875 -11.878907,7.128907 -1.929687,-4.378907 -6.011718,-7.128907 -11.875,-7.128907 -5.050781,0 -8.613281,2.675781 -10.914062,6.386719 v -5.496094 H 3.785156 V 0 h 9.355469 v -21.082031 c 0,-7.203125 3.933594,-10.023438 7.867187,-10.023438 4.457032,0 6.683594,2.375 6.683594,7.273438 V 0 h 9.277344 v -21.082031 c 0,-7.203125 3.863281,-10.023438 7.945312,-10.023438 4.453126,0 6.605469,2.375 6.605469,7.273438 V 0 H 60.875 v -25.316406 c 0,-8.460938 -4.824219,-13.882813 -13.363281,-13.882813 z m 0,0"
               id="path4" />
          </g>
        </g>
      </g>
      <g
         fill="#000000"
         fill-opacity="1"
         id="g10">
        <g
           transform="translate(103.84618,85.935074)"
           id="g9">
          <g
             id="g8">
            <path
               d="m 47.511719,-39.199219 c -5.34375,0 -9.351563,3.046875 -11.878907,7.128907 -1.929687,-4.378907 -6.011718,-7.128907 -11.875,-7.128907 -5.050781,0 -8.613281,2.675781 -10.914062,6.386719 v -5.496094 H 3.785156 V 0 h 9.355469 v -21.082031 c 0,-7.203125 3.933594,-10.023438 7.867187,-10.023438 4.457032,0 6.683594,2.375 6.683594,7.273438 V 0 h 9.277344 v -21.082031 c 0,-7.203125 3.863281,-10.023438 7.945312,-10.023438 4.453126,0 6.605469,2.375 6.605469,7.273438 V 0 H 60.875 v -25.316406 c 0,-8.460938 -4.824219,-13.882813 -13.363281,-13.882813 z m 0,0"
               id="path7" />
          </g>
        </g>
      </g>
      <g
         fill="#000000"
         fill-opacity="1"
         id="g13">
        <g
           transform="translate(163.30985,85.935074)"
           id="g12">
          <g
             id="g11">
            <path
               d="m 38.234375,0 c -1.042969,-1.484375 -1.5625,-4.527344 -1.5625,-7.273438 v -20.417968 c 0,-6.902344 -4.527344,-11.507813 -15.960937,-11.507813 -11.949219,0 -16.703126,4.976563 -17.222657,13.066407 h 9.207031 c 0.371094,-4.675782 2.597657,-6.085938 7.941407,-6.085938 5.421875,0 6.980469,1.78125 6.980469,4.75 0,2.820312 -1.855469,3.933594 -5.421876,4.378906 l -5.789062,0.523438 C 5.566406,-21.527344 1.707031,-17 1.707031,-10.617188 c 0,7.425782 5.640625,11.507813 13.808594,11.507813 5.640625,0 9.800781,-2.003906 12.324219,-5.566406 C 27.988281,-2.820312 28.285156,-1.039062 28.878906,0 Z M 17.742188,-5.789062 c -4.304688,0 -6.457032,-2.007813 -6.457032,-5.199219 0,-3.042969 1.707032,-4.898438 6.902344,-5.492188 l 5.050781,-0.59375 c 2.003907,-0.222656 3.414063,-0.667969 4.378907,-1.558593 v 3.488281 c 0,6.679687 -4.898438,9.355469 -9.875,9.355469 z m 0,0"
               id="path10" />
          </g>
        </g>
      </g>
      <g
         fill="#000000"
         fill-opacity="1"
         id="g16">
        <g
           transform="translate(198.13428,85.935074)"
           id="g15">
          <g
             id="g14">
            <path
               d="m 15.8125,1.039062 c 10.765625,0 16.628906,-4.007812 17.964844,-10.542968 1.484375,-7.347656 -1.855469,-11.429688 -10.613282,-12.988282 l -4.53125,-0.671874 c -4.230468,-0.816407 -6.085937,-2.226563 -5.492187,-5.195313 0.519531,-2.597656 3.117187,-4.15625 7.644531,-4.15625 4.753906,0 7.425782,1.484375 6.683594,6.308594 h 8.832031 c 0.964844,-7.867188 -3.191406,-12.992188 -14.699219,-12.992188 -9.871093,0 -15.960937,3.714844 -17.371093,10.246094 -1.632813,7.5 2.375,11.507813 10.023437,12.84375 l 4.15625,0.667969 c 5.273438,0.964844 6.683594,2.523437 6.015625,5.640625 -0.519531,2.527343 -2.824219,4.160156 -7.871093,4.160156 -5.789063,0 -8.089844,-1.707031 -7.644532,-6.535156 H -0.222656 C -1.410156,-2.894531 4.15625,1.039062 15.8125,1.039062 Z m 0,0"
               id="path13" />
          </g>
        </g>
      </g>
      <g
         fill="#000000"
         fill-opacity="1"
         id="g19">
        <g
           transform="translate(229.9818,85.935074)"
           id="g18">
          <g
             id="g17">
            <path
               d="m 27.542969,-39.199219 c -4.601563,0 -8.390625,1.710938 -11.359375,4.605469 l 0.742187,-3.714844 H 7.945312 L -3.339844,14.550781 h 9.351563 l 4.085937,-19.226562 c 2.078125,3.5625 5.714844,5.566406 10.910156,5.566406 10.617188,0 17.96875,-7.867187 20.269532,-18.632813 2.820312,-13.140624 -3.042969,-21.457031 -13.734375,-21.457031 z m 4.378906,20.34375 c -1.558594,7.570313 -5.9375,12.175781 -11.878906,12.175781 -6.53125,0 -9.574219,-4.382812 -7.71875,-12.769531 1.78125,-7.945312 6.011719,-12.027343 12.324219,-12.027343 6.011718,0 9.054687,4.15625 7.273437,12.621093 z m 0,0"
               id="path16" />
          </g>
        </g>
      </g>
      <g
         fill="#000000"
         fill-opacity="1"
         id="g22">
        <g
           transform="translate(268.43643,85.935074)"
           id="g21">
          <g
             id="g20">
            <path
               d="m 24.203125,-39.199219 c -11.0625,0 -19.527344,7.351563 -21.902344,18.5625 -2.894531,13.734375 4.007813,21.527344 15.515625,21.527344 9.800782,0 16.332032,-4.453125 19.597656,-12.769531 h -9.054687 c -2.003906,3.785156 -5.34375,5.496094 -9.726563,5.496094 -5.269531,0 -8.683593,-3.046876 -8.089843,-9.875 H 39.050781 C 39.347656,-17 39.496094,-17.742188 39.71875,-18.484375 42.539062,-30.585938 36.226562,-39.199219 24.203125,-39.199219 Z m -0.816406,7.277344 c 5.566406,0 8.3125,3.710937 7.867187,9.128906 h -19.375 c 2.152344,-6.160156 6.457032,-9.128906 11.507813,-9.128906 z m 0,0"
               id="path19" />
          </g>
        </g>
      </g>
      <g
         fill="#000000"
         fill-opacity="1"
         id="g25">
        <g
           transform="translate(304.96088,85.935074)"
           id="g24">
          <g
             id="g23">
            <path
               d="m 23.980469,-39.199219 c -11.433594,0 -16.929688,4.679688 -18.859375,13.066407 h 9.207031 c 1.1875,-4.75 3.785156,-6.085938 9.058594,-6.085938 5.417969,0 6.679687,2.003906 6.160156,5.121094 -0.59375,2.597656 -2.449219,3.636718 -6.308594,4.007812 l -6.164062,0.597656 C 6.011719,-21.453125 1.558594,-17.667969 0.371094,-11.65625 -1.335938,-3.5625 3.859375,0.890625 12.25,0.890625 c 5.34375,0 9.648438,-1.929687 12.621094,-5.121094 C 24.648438,-2.449219 24.648438,-0.964844 25.019531,0 h 9.351563 c -0.742188,-1.484375 -0.59375,-4.527344 0,-7.273438 l 3.863281,-17.96875 c 1.929687,-9.203124 -2.15625,-13.957031 -14.253906,-13.957031 z m -8.910157,33.410157 c -4.230468,0 -6.011718,-2.082032 -5.269531,-5.496094 0.59375,-2.820313 2.671875,-4.675782 8.015625,-5.269532 l 4.75,-0.519531 c 2.304688,-0.222656 3.9375,-0.742187 5.199219,-1.632812 L 26.875,-14.847656 c -1.558594,6.457031 -7.203125,9.058594 -11.804688,9.058594 z m 0,0"
               id="path22" />
          </g>
        </g>
      </g>
      <g
         fill="#000000"
         fill-opacity="1"
         id="g28">
        <g
           transform="translate(339.77789,85.935074)"
           id="g27">
          <g
             id="g26">
            <path
               d="m 28.507812,-38.902344 c -5.714843,0 -10.171874,2.824219 -12.917968,6.609375 l 1.335937,-6.015625 H 7.871094 L -0.296875,0 h 9.355469 l 4.082031,-19.152344 c 1.558594,-7.5 6.53125,-10.988281 13.4375,-10.988281 h 2.375 l 1.78125,-8.613281 c -0.742187,-0.07422 -1.410156,-0.148438 -2.226563,-0.148438 z m 0,0"
               id="path25" />
          </g>
        </g>
      </g>
      <g
         fill="#fc64ab"
         fill-opacity="1"
         id="g31">
        <g
           transform="translate(4.131699,82.65415)"
           id="g30">
          <g
             id="g29">
            <path
               d="m 21.15625,0.890625 c 9.207031,0 15.8125,-5.046875 17.820312,-12.769531 h -9.058593 c -1.335938,3.414062 -4.230469,5.496094 -8.6875,5.496094 -5.417969,0 -9.203125,-3.121094 -9.945313,-9.875 h 28.65625 v -2.226563 c 0,-12.175781 -7.203125,-20.714844 -18.933594,-20.714844 -11.355468,0 -18.929687,8.019531 -18.929687,20.046875 0,12.25 7.796875,20.042969 19.078125,20.042969 z m -9.796875,-23.683594 c 0.890625,-6.234375 4.601563,-9.128906 9.574219,-9.128906 5.570312,0 8.910156,3.710937 9.652344,9.128906 z m 0,0"
               id="path28" />
          </g>
        </g>
      </g>
      <g
         fill="#fc64ab"
         fill-opacity="1"
         id="g34">
        <g
           transform="translate(41.101576,82.65415)"
           id="g33">
          <g
             id="g32">
            <path
               d="m 47.511719,-39.199219 c -5.34375,0 -9.351563,3.046875 -11.878907,7.128907 -1.929687,-4.378907 -6.011718,-7.128907 -11.875,-7.128907 -5.050781,0 -8.613281,2.675781 -10.914062,6.386719 v -5.496094 H 3.785156 V 0 h 9.355469 v -21.082031 c 0,-7.203125 3.933594,-10.023438 7.867187,-10.023438 4.457032,0 6.683594,2.375 6.683594,7.273438 V 0 h 9.277344 v -21.082031 c 0,-7.203125 3.863281,-10.023438 7.945312,-10.023438 4.453126,0 6.605469,2.375 6.605469,7.273438 V 0 H 60.875 v -25.316406 c 0,-8.460938 -4.824219,-13.882813 -13.363281,-13.882813 z m 0,0"
               id="path31" />
          </g>
        </g>
      </g>
      <g
         fill="#fc64ab"
         fill-opacity="1"
         id="g37">
        <g
           transform="translate(100.56525,82.65415)"
           id="g36">
          <g
             id="g35">
            <path
               d="m 47.511719,-39.199219 c -5.34375,0 -9.351563,3.046875 -11.878907,7.128907 -1.929687,-4.378907 -6.011718,-7.128907 -11.875,-7.128907 -5.050781,0 -8.613281,2.675781 -10.914062,6.386719 v -5.496094 H 3.785156 V 0 h 9.355469 v -21.082031 c 0,-7.203125 3.933594,-10.023438 7.867187,-10.023438 4.457032,0 6.683594,2.375 6.683594,7.273438 V 0 h 9.277344 v -21.082031 c 0,-7.203125 3.863281,-10.023438 7.945312,-10.023438 4.453126,0 6.605469,2.375 6.605469,7.273438 V 0 H 60.875 v -25.316406 c 0,-8.460938 -4.824219,-13.882813 -13.363281,-13.882813 z m 0,0"
               id="path34" />
          </g>
        </g>
      </g>
      <g
         fill="#fc64ab"
         fill-opacity="1"
         id="g40">
        <g
           transform="translate(160.02893,82.65415)"
           id="g39">
          <g
             id="g38">
            <path
               d="m 38.234375,0 c -1.042969,-1.484375 -1.5625,-4.527344 -1.5625,-7.273438 v -20.417968 c 0,-6.902344 -4.527344,-11.507813 -15.960937,-11.507813 -11.949219,0 -16.703126,4.976563 -17.222657,13.066407 h 9.207031 c 0.371094,-4.675782 2.597657,-6.085938 7.941407,-6.085938 5.421875,0 6.980469,1.78125 6.980469,4.75 0,2.820312 -1.855469,3.933594 -5.421876,4.378906 l -5.789062,0.523438 C 5.566406,-21.527344 1.707031,-17 1.707031,-10.617188 c 0,7.425782 5.640625,11.507813 13.808594,11.507813 5.640625,0 9.800781,-2.003906 12.324219,-5.566406 C 27.988281,-2.820312 28.285156,-1.039062 28.878906,0 Z M 17.742188,-5.789062 c -4.304688,0 -6.457032,-2.007813 -6.457032,-5.199219 0,-3.042969 1.707032,-4.898438 6.902344,-5.492188 l 5.050781,-0.59375 c 2.003907,-0.222656 3.414063,-0.667969 4.378907,-1.558593 v 3.488281 c 0,6.679687 -4.898438,9.355469 -9.875,9.355469 z m 0,0"
               id="path37" />
          </g>
        </g>
      </g>
      <g
         fill="#fc64ab"
         fill-opacity="1"
         id="g43">
        <g
           transform="translate(194.85335,82.65415)"
           id="g42">
          <g
             id="g41">
            <path
               d="m 15.8125,1.039062 c 10.765625,0 16.628906,-4.007812 17.964844,-10.542968 1.484375,-7.347656 -1.855469,-11.429688 -10.613282,-12.988282 l -4.53125,-0.671874 c -4.230468,-0.816407 -6.085937,-2.226563 -5.492187,-5.195313 0.519531,-2.597656 3.117187,-4.15625 7.644531,-4.15625 4.753906,0 7.425782,1.484375 6.683594,6.308594 h 8.832031 c 0.964844,-7.867188 -3.191406,-12.992188 -14.699219,-12.992188 -9.871093,0 -15.960937,3.714844 -17.371093,10.246094 -1.632813,7.5 2.375,11.507813 10.023437,12.84375 l 4.15625,0.667969 c 5.273438,0.964844 6.683594,2.523437 6.015625,5.640625 -0.519531,2.527343 -2.824219,4.160156 -7.871093,4.160156 -5.789063,0 -8.089844,-1.707031 -7.644532,-6.535156 H -0.222656 C -1.410156,-2.894531 4.15625,1.039062 15.8125,1.039062 Z m 0,0"
               id="path40" />
          </g>
        </g>
      </g>
      <g
         fill="#fc64ab"
         fill-opacity="1"
         id="g46">
        <g
           transform="translate(226.70088,82.65415)"
           id="g45">
          <g
             id="g44">
            <path
               d="m 27.542969,-39.199219 c -4.601563,0 -8.390625,1.710938 -11.359375,4.605469 l 0.742187,-3.714844 H 7.945312 L -3.339844,14.550781 h 9.351563 l 4.085937,-19.226562 c 2.078125,3.5625 5.714844,5.566406 10.910156,5.566406 10.617188,0 17.96875,-7.867187 20.269532,-18.632813 2.820312,-13.140624 -3.042969,-21.457031 -13.734375,-21.457031 z m 4.378906,20.34375 c -1.558594,7.570313 -5.9375,12.175781 -11.878906,12.175781 -6.53125,0 -9.574219,-4.382812 -7.71875,-12.769531 1.78125,-7.945312 6.011719,-12.027343 12.324219,-12.027343 6.011718,0 9.054687,4.15625 7.273437,12.621093 z m 0,0"
               id="path43" />
          </g>
        </g>
      </g>
      <g
         fill="#fc64ab"
         fill-opacity="1"
         id="g49">
        <g
           transform="translate(265.1555,82.65415)"
           id="g48">
          <g
             id="g47">
            <path
               d="m 24.203125,-39.199219 c -11.0625,0 -19.527344,7.351563 -21.902344,18.5625 -2.894531,13.734375 4.007813,21.527344 15.515625,21.527344 9.800782,0 16.332032,-4.453125 19.597656,-12.769531 h -9.054687 c -2.003906,3.785156 -5.34375,5.496094 -9.726563,5.496094 -5.269531,0 -8.683593,-3.046876 -8.089843,-9.875 H 39.050781 C 39.347656,-17 39.496094,-17.742188 39.71875,-18.484375 42.539062,-30.585938 36.226562,-39.199219 24.203125,-39.199219 Z m -0.816406,7.277344 c 5.566406,0 8.3125,3.710937 7.867187,9.128906 h -19.375 c 2.152344,-6.160156 6.457032,-9.128906 11.507813,-9.128906 z m 0,0"
               id="path46" />
          </g>
        </g>
      </g>
      <g
         fill="#fc64ab"
         fill-opacity="1"
         id="g52">
        <g
           transform="translate(301.67996,82.65415)"
           id="g51">
          <g
             id="g50">
            <path
               d="m 23.980469,-39.199219 c -11.433594,0 -16.929688,4.679688 -18.859375,13.066407 h 9.207031 c 1.1875,-4.75 3.785156,-6.085938 9.058594,-6.085938 5.417969,0 6.679687,2.003906 6.160156,5.121094 -0.59375,2.597656 -2.449219,3.636718 -6.308594,4.007812 l -6.164062,0.597656 C 6.011719,-21.453125 1.558594,-17.667969 0.371094,-11.65625 -1.335938,-3.5625 3.859375,0.890625 12.25,0.890625 c 5.34375,0 9.648438,-1.929687 12.621094,-5.121094 C 24.648438,-2.449219 24.648438,-0.964844 25.019531,0 h 9.351563 c -0.742188,-1.484375 -0.59375,-4.527344 0,-7.273438 l 3.863281,-17.96875 c 1.929687,-9.203124 -2.15625,-13.957031 -14.253906,-13.957031 z m -8.910157,33.410157 c -4.230468,0 -6.011718,-2.082032 -5.269531,-5.496094 0.59375,-2.820313 2.671875,-4.675782 8.015625,-5.269532 l 4.75,-0.519531 c 2.304688,-0.222656 3.9375,-0.742187 5.199219,-1.632812 L 26.875,-14.847656 c -1.558594,6.457031 -7.203125,9.058594 -11.804688,9.058594 z m 0,0"
               id="path49" />
          </g>
        </g>
      </g>
      <g
         fill="#fc64ab"
         fill-opacity="1"
         id="g55">
        <g
           transform="translate(336.49696,82.65415)"
           id="g54">
          <g
             id="g53">
            <path
               d="m 28.507812,-38.902344 c -5.714843,0 -10.171874,2.824219 -12.917968,6.609375 l 1.335937,-6.015625 H 7.871094 L -0.296875,0 h 9.355469 l 4.082031,-19.152344 c 1.558594,-7.5 6.53125,-10.988281 13.4375,-10.988281 h 2.375 l 1.78125,-8.613281 c -0.742187,-0.07422 -1.410156,-0.148438 -2.226563,-0.148438 z m 0,0"
               id="path52" />
          </g>
        </g>
      </g>
    </g>
  </g>
</svg>
