<svg xmlns="http://www.w3.org/2000/svg" xmlns:xlink="http://www.w3.org/1999/xlink" width="500" zoomAndPan="magnify" viewBox="0 0 375 374.999991" height="500" preserveAspectRatio="xMidYMid meet" version="1.0"><defs><g/><clipPath id="5ec72cb304"><path d="M 98 173 L 161 173 L 161 251.761719 L 98 251.761719 Z M 98 173 " clip-rule="nonzero"/></clipPath><clipPath id="0d9bfeebbc"><path d="M 321.03125 69.125 L 362.335938 69.125 L 362.335938 110.433594 L 321.03125 110.433594 Z M 321.03125 69.125 " clip-rule="nonzero"/></clipPath><clipPath id="2b9e0999af"><path d="M 0 148.6875 L 41.304688 148.6875 L 41.304688 189.992188 L 0 189.992188 Z M 0 148.6875 " clip-rule="nonzero"/></clipPath><clipPath id="6f80c82efd"><rect x="0" width="363" y="0" height="252"/></clipPath></defs><rect x="-37.5" width="450" fill="#ffffff" y="-37.499999" height="449.999989" fill-opacity="1"/><rect x="-37.5" width="450" fill="#ff66c4" y="-37.499999" height="449.999989" fill-opacity="1"/><g transform="matrix(1, 0, 0, 1, 0, 30)"><g clip-path="url(#6f80c82efd)"><g fill="#000000" fill-opacity="1"><g transform="translate(41.030451, 227.66223)"><g><path d="M 2.6875 -12.890625 C 2.6875 -14.679688 3.203125 -16.113281 4.234375 -17.1875 C 5.265625 -18.257812 6.765625 -18.796875 8.734375 -18.796875 C 10.429688 -18.796875 11.816406 -18.171875 12.890625 -16.921875 C 13.960938 -15.671875 15.082031 -14.238281 16.25 -12.625 C 17.414062 -11.007812 18.890625 -9.578125 20.671875 -8.328125 C 22.460938 -7.078125 24.882812 -6.453125 27.9375 -6.453125 C 30.257812 -6.453125 32.09375 -6.695312 33.4375 -7.1875 C 34.78125 -7.675781 35.453125 -8.816406 35.453125 -10.609375 C 35.453125 -12.035156 34.664062 -13.195312 33.09375 -14.09375 C 31.53125 -14.988281 29.539062 -15.816406 27.125 -16.578125 C 24.707031 -17.335938 22.132812 -18.1875 19.40625 -19.125 C 16.675781 -20.070312 14.101562 -21.257812 11.6875 -22.6875 C 9.269531 -24.125 7.273438 -25.984375 5.703125 -28.265625 C 4.140625 -30.546875 3.359375 -33.429688 3.359375 -36.921875 C 3.359375 -40.859375 4.253906 -44.015625 6.046875 -46.390625 C 7.835938 -48.765625 10.070312 -50.53125 12.75 -51.6875 C 15.4375 -52.851562 18.097656 -53.613281 20.734375 -53.96875 C 23.378906 -54.332031 25.554688 -54.515625 27.265625 -54.515625 C 31.828125 -54.515625 36.078125 -53.976562 40.015625 -52.90625 C 43.953125 -51.832031 47.128906 -50.242188 49.546875 -48.140625 C 51.960938 -46.035156 53.171875 -43.460938 53.171875 -40.421875 C 53.171875 -38.898438 52.609375 -37.597656 51.484375 -36.515625 C 50.367188 -35.441406 49.050781 -34.90625 47.53125 -34.90625 C 45.207031 -34.90625 43.328125 -35.554688 41.890625 -36.859375 C 40.460938 -38.160156 39.164062 -39.640625 38 -41.296875 C 36.832031 -42.953125 35.488281 -44.425781 33.96875 -45.71875 C 32.445312 -47.019531 30.476562 -47.671875 28.0625 -47.671875 C 25.644531 -47.671875 24.054688 -47.109375 23.296875 -45.984375 C 22.535156 -44.867188 22.15625 -43.726562 22.15625 -42.5625 C 22.15625 -40.863281 22.914062 -39.566406 24.4375 -38.671875 C 25.957031 -37.773438 27.925781 -37.035156 30.34375 -36.453125 C 32.757812 -35.867188 35.3125 -35.21875 38 -34.5 C 40.6875 -33.789062 43.238281 -32.832031 45.65625 -31.625 C 48.070312 -30.414062 50.039062 -28.710938 51.5625 -26.515625 C 53.082031 -24.328125 53.84375 -21.441406 53.84375 -17.859375 C 53.84375 -13.296875 52.519531 -9.644531 49.875 -6.90625 C 47.238281 -4.175781 43.859375 -2.207031 39.734375 -1 C 35.617188 0.207031 31.28125 0.8125 26.71875 0.8125 C 24.84375 0.8125 22.5625 0.585938 19.875 0.140625 C 17.1875 -0.304688 14.519531 -1.046875 11.875 -2.078125 C 9.238281 -3.109375 7.046875 -4.492188 5.296875 -6.234375 C 3.554688 -7.984375 2.6875 -10.203125 2.6875 -12.890625 Z M 2.6875 -12.890625 "/></g></g></g><g clip-path="url(#5ec72cb304)"><g fill="#000000" fill-opacity="1"><g transform="translate(97.017521, 227.66223)"><g><path d="M 16.65625 22.6875 C 15.3125 22.6875 13.71875 22.820312 11.875 23.09375 C 10.039062 23.363281 8.320312 23.5 6.71875 23.5 C 5.195312 23.5 3.921875 23.273438 2.890625 22.828125 C 1.859375 22.378906 1.34375 21.484375 1.34375 20.140625 C 1.34375 19.160156 1.566406 18.421875 2.015625 17.921875 C 2.460938 17.429688 3 16.804688 3.625 16.046875 C 4.25 15.285156 4.785156 14.097656 5.234375 12.484375 C 5.679688 10.878906 5.90625 8.507812 5.90625 5.375 C 5.90625 2.332031 5.90625 -1.203125 5.90625 -5.234375 C 5.90625 -9.265625 5.925781 -13.269531 5.96875 -17.25 C 6.019531 -21.238281 6.046875 -24.6875 6.046875 -27.59375 C 6.046875 -30.5 6.046875 -32.359375 6.046875 -33.171875 C 6.046875 -35.585938 5.664062 -37.265625 4.90625 -38.203125 C 4.144531 -39.140625 3.382812 -39.875 2.625 -40.40625 C 1.863281 -40.945312 1.484375 -41.800781 1.484375 -42.96875 C 1.484375 -44.3125 1.925781 -45.226562 2.8125 -45.71875 C 3.707031 -46.21875 4.984375 -46.644531 6.640625 -47 C 8.296875 -47.351562 10.289062 -47.9375 12.625 -48.75 C 15.488281 -49.820312 17.457031 -50.78125 18.53125 -51.625 C 19.601562 -52.476562 20.40625 -53.171875 20.9375 -53.703125 C 21.476562 -54.242188 22.332031 -54.515625 23.5 -54.515625 C 25.113281 -54.515625 26.1875 -53.796875 26.71875 -52.359375 C 27.257812 -50.929688 27.53125 -49.234375 27.53125 -47.265625 L 27.53125 -47.125 C 27.53125 -45.695312 27.640625 -45.003906 27.859375 -45.046875 C 28.085938 -45.097656 28.515625 -45.59375 29.140625 -46.53125 C 29.765625 -47.46875 30.632812 -48.5625 31.75 -49.8125 C 32.875 -51.070312 34.332031 -52.171875 36.125 -53.109375 C 37.914062 -54.046875 40.0625 -54.515625 42.5625 -54.515625 C 47.132812 -54.515625 50.960938 -53.171875 54.046875 -50.484375 C 57.140625 -47.804688 59.46875 -44.382812 61.03125 -40.21875 C 62.59375 -36.050781 63.351562 -31.59375 63.3125 -26.84375 C 63.269531 -22.101562 62.421875 -17.648438 60.765625 -13.484375 C 59.109375 -9.328125 56.644531 -5.90625 53.375 -3.21875 C 50.101562 -0.53125 46.007812 0.8125 41.09375 0.8125 C 38.40625 0.8125 36.078125 0.410156 34.109375 -0.390625 C 32.140625 -1.203125 30.570312 -2.234375 29.40625 -3.484375 C 28.6875 -4.296875 28.191406 -4.65625 27.921875 -4.5625 C 27.660156 -4.476562 27.53125 -3.941406 27.53125 -2.953125 L 27.53125 5.375 C 27.53125 8.507812 27.753906 10.878906 28.203125 12.484375 C 28.648438 14.097656 29.1875 15.285156 29.8125 16.046875 C 30.4375 16.804688 30.972656 17.429688 31.421875 17.921875 C 31.867188 18.421875 32.09375 19.160156 32.09375 20.140625 C 32.09375 21.484375 31.578125 22.378906 30.546875 22.828125 C 29.515625 23.273438 28.238281 23.5 26.71875 23.5 C 25.019531 23.5 23.253906 23.363281 21.421875 23.09375 C 19.585938 22.820312 18 22.6875 16.65625 22.6875 Z M 34.109375 -39.34375 C 31.691406 -39.34375 29.878906 -37.820312 28.671875 -34.78125 C 27.460938 -31.738281 26.859375 -28.203125 26.859375 -24.171875 C 26.859375 -20.140625 27.460938 -16.691406 28.671875 -13.828125 C 29.878906 -10.960938 31.691406 -9.53125 34.109375 -9.53125 C 36.523438 -9.53125 38.335938 -10.984375 39.546875 -13.890625 C 40.753906 -16.804688 41.359375 -20.28125 41.359375 -24.3125 C 41.359375 -28.332031 40.753906 -31.84375 39.546875 -34.84375 C 38.335938 -37.84375 36.523438 -39.34375 34.109375 -39.34375 Z M 34.109375 -39.34375 "/></g></g></g></g><g fill="#000000" fill-opacity="1"><g transform="translate(162.402919, 227.66223)"><g><path d="M 32.359375 0.8125 C 27.617188 0.8125 22.960938 -0.125 18.390625 -2 C 13.828125 -3.882812 10.066406 -6.84375 7.109375 -10.875 C 4.160156 -14.90625 2.6875 -20.1875 2.6875 -26.71875 C 2.6875 -32.269531 3.894531 -37.125 6.3125 -41.28125 C 8.726562 -45.445312 12.082031 -48.691406 16.375 -51.015625 C 20.675781 -53.347656 25.644531 -54.515625 31.28125 -54.515625 C 36.832031 -54.515625 41.351562 -53.84375 44.84375 -52.5 C 48.34375 -51.15625 51.050781 -49.429688 52.96875 -47.328125 C 54.894531 -45.222656 56.21875 -43.070312 56.9375 -40.875 C 57.65625 -38.6875 58.015625 -36.789062 58.015625 -35.1875 C 58.015625 -30.707031 56.625 -27.054688 53.84375 -24.234375 C 51.070312 -21.421875 47.535156 -19.363281 43.234375 -18.0625 C 38.941406 -16.757812 34.554688 -16.109375 30.078125 -16.109375 C 28.828125 -16.109375 27.910156 -15.660156 27.328125 -14.765625 C 26.742188 -13.867188 26.5625 -12.835938 26.78125 -11.671875 C 27.007812 -10.515625 27.726562 -9.488281 28.9375 -8.59375 C 30.144531 -7.695312 31.867188 -7.25 34.109375 -7.25 C 37.328125 -7.25 39.875 -7.832031 41.75 -9 C 43.632812 -10.164062 45.132812 -11.507812 46.25 -13.03125 C 47.375 -14.550781 48.453125 -15.890625 49.484375 -17.046875 C 50.515625 -18.210938 51.878906 -18.796875 53.578125 -18.796875 C 55.097656 -18.796875 56.238281 -18.328125 57 -17.390625 C 57.757812 -16.453125 58.140625 -15.398438 58.140625 -14.234375 C 58.140625 -11.191406 56.953125 -8.550781 54.578125 -6.3125 C 52.210938 -4.070312 49.054688 -2.320312 45.109375 -1.0625 C 41.171875 0.1875 36.921875 0.8125 32.359375 0.8125 Z M 31.28125 -47.671875 C 29.40625 -47.671875 27.90625 -46.550781 26.78125 -44.3125 C 25.664062 -42.070312 25.109375 -39.070312 25.109375 -35.3125 C 25.109375 -31.550781 25.664062 -28.550781 26.78125 -26.3125 C 27.90625 -24.082031 29.40625 -22.96875 31.28125 -22.96875 C 33.164062 -22.96875 34.664062 -24.082031 35.78125 -26.3125 C 36.90625 -28.550781 37.46875 -31.550781 37.46875 -35.3125 C 37.46875 -39.070312 36.90625 -42.070312 35.78125 -44.3125 C 34.664062 -46.550781 33.164062 -47.671875 31.28125 -47.671875 Z M 31.28125 -47.671875 "/></g></g></g><g fill="#000000" fill-opacity="1"><g transform="translate(222.686372, 227.66223)"><g><path d="M 17.453125 0.8125 C 12.441406 0.8125 8.726562 -0.664062 6.3125 -3.625 C 3.894531 -6.582031 2.6875 -10.117188 2.6875 -14.234375 C 2.6875 -20.234375 4.921875 -24.953125 9.390625 -28.390625 C 13.867188 -31.835938 19.691406 -34.328125 26.859375 -35.859375 C 33.660156 -37.285156 37.0625 -39.519531 37.0625 -42.5625 C 37.0625 -43.726562 36.566406 -44.867188 35.578125 -45.984375 C 34.597656 -47.109375 32.898438 -47.671875 30.484375 -47.671875 C 28.066406 -47.671875 26.097656 -47.019531 24.578125 -45.71875 C 23.054688 -44.425781 21.710938 -42.953125 20.546875 -41.296875 C 19.378906 -39.640625 18.101562 -38.160156 16.71875 -36.859375 C 15.332031 -35.554688 13.472656 -34.90625 11.140625 -34.90625 C 9.617188 -34.90625 8.296875 -35.441406 7.171875 -36.515625 C 6.054688 -37.597656 5.5 -38.898438 5.5 -40.421875 C 5.5 -43.460938 6.707031 -46.035156 9.125 -48.140625 C 11.539062 -50.242188 14.695312 -51.832031 18.59375 -52.90625 C 22.488281 -53.976562 26.71875 -54.515625 31.28125 -54.515625 C 36.207031 -54.515625 40.6875 -53.726562 44.71875 -52.15625 C 48.75 -50.59375 51.972656 -47.976562 54.390625 -44.3125 C 56.804688 -40.644531 58.015625 -35.628906 58.015625 -29.265625 L 58.015625 -17.328125 C 58.015625 -14.191406 58.238281 -11.816406 58.6875 -10.203125 C 59.132812 -8.585938 59.671875 -7.398438 60.296875 -6.640625 C 60.921875 -5.878906 61.457031 -5.253906 61.90625 -4.765625 C 62.351562 -4.273438 62.578125 -3.535156 62.578125 -2.546875 C 62.578125 -1.203125 62.171875 -0.304688 61.359375 0.140625 C 60.554688 0.585938 59.53125 0.8125 58.28125 0.8125 C 56.9375 0.8125 55.457031 0.675781 53.84375 0.40625 C 52.226562 0.132812 50.753906 0 49.421875 0 C 47.984375 0 46.726562 0.0664062 45.65625 0.203125 C 44.582031 0.335938 43.460938 0.492188 42.296875 0.671875 C 40.867188 0.847656 39.59375 0.664062 38.46875 0.125 C 37.351562 -0.40625 36.707031 -1.382812 36.53125 -2.8125 C 36.4375 -4.25 36.207031 -5.210938 35.84375 -5.703125 C 35.488281 -6.203125 35.046875 -6.453125 34.515625 -6.453125 C 33.523438 -6.453125 32.242188 -5.84375 30.671875 -4.625 C 29.109375 -3.414062 27.226562 -2.207031 25.03125 -1 C 22.84375 0.207031 20.316406 0.8125 17.453125 0.8125 Z M 23.5 -19.734375 C 23.5 -17.140625 24.144531 -15.28125 25.4375 -14.15625 C 26.738281 -13.039062 28.285156 -12.484375 30.078125 -12.484375 C 32.316406 -12.484375 34.015625 -13.445312 35.171875 -15.375 C 36.335938 -17.300781 36.921875 -19.5625 36.921875 -22.15625 L 36.921875 -28.609375 C 36.921875 -31.023438 35.800781 -31.648438 33.5625 -30.484375 C 32.132812 -29.765625 30.632812 -28.976562 29.0625 -28.125 C 27.5 -27.28125 26.179688 -26.226562 25.109375 -24.96875 C 24.035156 -23.71875 23.5 -21.972656 23.5 -19.734375 Z M 23.5 -19.734375 "/></g></g></g><g fill="#000000" fill-opacity="1"><g transform="translate(286.057845, 227.66223)"><g><path d="M 1.34375 -2.546875 C 1.34375 -3.535156 1.566406 -4.273438 2.015625 -4.765625 C 2.460938 -5.253906 3 -5.878906 3.625 -6.640625 C 4.25 -7.398438 4.785156 -8.585938 5.234375 -10.203125 C 5.679688 -11.816406 5.90625 -14.191406 5.90625 -17.328125 C 5.90625 -21.441406 5.925781 -24.414062 5.96875 -26.25 C 6.019531 -28.082031 6.046875 -29.425781 6.046875 -30.28125 C 6.046875 -31.132812 6.046875 -32.097656 6.046875 -33.171875 C 6.046875 -35.585938 5.664062 -37.265625 4.90625 -38.203125 C 4.144531 -39.140625 3.382812 -39.875 2.625 -40.40625 C 1.863281 -40.945312 1.484375 -41.800781 1.484375 -42.96875 C 1.484375 -44.3125 1.925781 -45.226562 2.8125 -45.71875 C 3.707031 -46.21875 4.984375 -46.644531 6.640625 -47 C 8.296875 -47.351562 10.289062 -47.9375 12.625 -48.75 C 15.488281 -49.820312 17.457031 -50.78125 18.53125 -51.625 C 19.601562 -52.476562 20.40625 -53.171875 20.9375 -53.703125 C 21.476562 -54.242188 22.332031 -54.515625 23.5 -54.515625 C 25.113281 -54.515625 26.1875 -53.796875 26.71875 -52.359375 C 27.257812 -50.929688 27.53125 -49.234375 27.53125 -47.265625 L 27.53125 -46.734375 C 27.53125 -44.492188 27.570312 -43.394531 27.65625 -43.4375 C 27.75 -43.476562 28.378906 -44.488281 29.546875 -46.46875 C 31.066406 -49.0625 33.191406 -51.050781 35.921875 -52.4375 C 38.648438 -53.820312 41.269531 -54.515625 43.78125 -54.515625 C 48.695312 -54.515625 51.867188 -53.460938 53.296875 -51.359375 C 54.734375 -49.253906 54.78125 -46.191406 53.4375 -42.171875 C 52.363281 -38.941406 51.398438 -36.722656 50.546875 -35.515625 C 49.703125 -34.304688 48.878906 -33.703125 48.078125 -33.703125 C 47.179688 -33.703125 46.191406 -34.238281 45.109375 -35.3125 C 44.035156 -36.382812 42.847656 -37.4375 41.546875 -38.46875 C 40.253906 -39.5 38.671875 -40.015625 36.796875 -40.015625 C 35.722656 -40.015625 34.445312 -39.65625 32.96875 -38.9375 C 31.488281 -38.226562 30.210938 -36.929688 29.140625 -35.046875 C 28.066406 -33.171875 27.53125 -30.53125 27.53125 -27.125 L 27.53125 -17.328125 C 27.53125 -14.191406 27.753906 -11.816406 28.203125 -10.203125 C 28.648438 -8.585938 29.1875 -7.398438 29.8125 -6.640625 C 30.4375 -5.878906 30.972656 -5.253906 31.421875 -4.765625 C 31.867188 -4.273438 32.09375 -3.535156 32.09375 -2.546875 C 32.09375 -1.203125 31.578125 -0.304688 30.546875 0.140625 C 29.515625 0.585938 28.238281 0.8125 26.71875 0.8125 C 25.019531 0.8125 23.253906 0.675781 21.421875 0.40625 C 19.585938 0.132812 18 0 16.65625 0 C 15.3125 0 13.71875 0.132812 11.875 0.40625 C 10.039062 0.675781 8.320312 0.8125 6.71875 0.8125 C 5.195312 0.8125 3.921875 0.585938 2.890625 0.140625 C 1.859375 -0.304688 1.34375 -1.203125 1.34375 -2.546875 Z M 1.34375 -2.546875 "/></g></g></g><g fill="#000000" fill-opacity="1"><g transform="translate(49.314021, 160.880881)"><g><path d="M 31.953125 0.796875 C 27.273438 0.796875 22.679688 -0.128906 18.171875 -1.984375 C 13.660156 -3.847656 9.945312 -6.765625 7.03125 -10.734375 C 4.113281 -14.710938 2.65625 -19.929688 2.65625 -26.390625 C 2.65625 -31.867188 3.847656 -36.660156 6.234375 -40.765625 C 8.617188 -44.878906 11.929688 -48.085938 16.171875 -50.390625 C 20.421875 -52.691406 25.328125 -53.84375 30.890625 -53.84375 C 36.378906 -53.84375 40.847656 -53.175781 44.296875 -51.84375 C 47.742188 -50.519531 50.414062 -48.816406 52.3125 -46.734375 C 54.21875 -44.660156 55.519531 -42.539062 56.21875 -40.375 C 56.925781 -38.207031 57.28125 -36.332031 57.28125 -34.75 C 57.28125 -30.320312 55.910156 -26.71875 53.171875 -23.9375 C 50.429688 -21.15625 46.9375 -19.117188 42.6875 -17.828125 C 38.445312 -16.546875 34.117188 -15.90625 29.703125 -15.90625 C 28.460938 -15.90625 27.554688 -15.460938 26.984375 -14.578125 C 26.410156 -13.703125 26.234375 -12.6875 26.453125 -11.53125 C 26.671875 -10.382812 27.378906 -9.367188 28.578125 -8.484375 C 29.773438 -7.597656 31.476562 -7.15625 33.6875 -7.15625 C 36.863281 -7.15625 39.378906 -7.726562 41.234375 -8.875 C 43.097656 -10.03125 44.582031 -11.359375 45.6875 -12.859375 C 46.789062 -14.367188 47.847656 -15.695312 48.859375 -16.84375 C 49.878906 -17.988281 51.226562 -18.5625 52.90625 -18.5625 C 54.414062 -18.5625 55.546875 -18.097656 56.296875 -17.171875 C 57.046875 -16.242188 57.421875 -15.207031 57.421875 -14.0625 C 57.421875 -11.050781 56.25 -8.441406 53.90625 -6.234375 C 51.5625 -4.023438 48.441406 -2.300781 44.546875 -1.0625 C 40.660156 0.175781 36.460938 0.796875 31.953125 0.796875 Z M 30.890625 -47.078125 C 29.035156 -47.078125 27.554688 -45.972656 26.453125 -43.765625 C 25.347656 -41.554688 24.796875 -38.59375 24.796875 -34.875 C 24.796875 -31.164062 25.347656 -28.203125 26.453125 -25.984375 C 27.554688 -23.773438 29.035156 -22.671875 30.890625 -22.671875 C 32.753906 -22.671875 34.238281 -23.773438 35.34375 -25.984375 C 36.445312 -28.203125 37 -31.164062 37 -34.875 C 37 -38.59375 36.445312 -41.554688 35.34375 -43.765625 C 34.238281 -45.972656 32.753906 -47.078125 30.890625 -47.078125 Z M 30.890625 -47.078125 "/></g></g></g><g fill="#000000" fill-opacity="1"><g transform="translate(103.942127, 160.880881)"><g><path d="M 17.109375 0 C 15.785156 0 14.21875 0.128906 12.40625 0.390625 C 10.59375 0.660156 8.890625 0.796875 7.296875 0.796875 C 5.796875 0.796875 4.535156 0.570312 3.515625 0.125 C 2.492188 -0.3125 1.984375 -1.191406 1.984375 -2.515625 C 1.984375 -3.492188 2.203125 -4.222656 2.640625 -4.703125 C 3.085938 -5.191406 3.617188 -5.8125 4.234375 -6.5625 C 4.859375 -7.3125 5.390625 -8.484375 5.828125 -10.078125 C 6.273438 -11.671875 6.5 -14.015625 6.5 -17.109375 C 6.5 -21.171875 6.519531 -24.109375 6.5625 -25.921875 C 6.601562 -27.734375 6.625 -29.054688 6.625 -29.890625 C 6.625 -30.734375 6.625 -31.6875 6.625 -32.75 C 6.625 -35.132812 6.25 -36.789062 5.5 -37.71875 C 4.75 -38.65625 4 -39.390625 3.25 -39.921875 C 2.5 -40.453125 2.125 -41.289062 2.125 -42.4375 C 2.125 -43.757812 2.566406 -44.664062 3.453125 -45.15625 C 4.335938 -45.644531 5.597656 -46.0625 7.234375 -46.40625 C 8.867188 -46.757812 10.832031 -47.335938 13.125 -48.140625 C 15.957031 -49.203125 17.898438 -50.148438 18.953125 -50.984375 C 20.015625 -51.828125 20.8125 -52.515625 21.34375 -53.046875 C 21.875 -53.578125 22.71875 -53.84375 23.875 -53.84375 C 25.457031 -53.84375 26.515625 -53.132812 27.046875 -51.71875 C 27.578125 -50.300781 27.84375 -48.617188 27.84375 -46.671875 L 27.84375 -45.625 C 27.84375 -44.382812 28.066406 -43.765625 28.515625 -43.765625 C 28.953125 -43.765625 29.65625 -44.269531 30.625 -45.28125 C 31.601562 -46.300781 32.863281 -47.472656 34.40625 -48.796875 C 35.957031 -50.128906 37.816406 -51.300781 39.984375 -52.3125 C 42.148438 -53.332031 44.601562 -53.84375 47.34375 -53.84375 C 50.082031 -53.84375 52.332031 -53.332031 54.09375 -52.3125 C 55.863281 -51.300781 57.257812 -50.128906 58.28125 -48.796875 C 59.300781 -47.472656 60.117188 -46.300781 60.734375 -45.28125 C 61.347656 -44.269531 61.832031 -43.765625 62.1875 -43.765625 C 62.8125 -43.765625 63.609375 -44.25 64.578125 -45.21875 C 65.554688 -46.1875 66.796875 -47.359375 68.296875 -48.734375 C 69.796875 -50.109375 71.628906 -51.300781 73.796875 -52.3125 C 75.960938 -53.332031 78.550781 -53.84375 81.5625 -53.84375 C 85.707031 -53.84375 88.84375 -52.957031 90.96875 -51.1875 C 93.09375 -49.414062 94.53125 -47.203125 95.28125 -44.546875 C 96.03125 -41.898438 96.40625 -39.207031 96.40625 -36.46875 L 96.40625 -17.109375 C 96.40625 -14.015625 96.625 -11.671875 97.0625 -10.078125 C 97.507812 -8.484375 98.019531 -7.3125 98.59375 -6.5625 C 99.164062 -5.8125 99.695312 -5.191406 100.1875 -4.703125 C 100.675781 -4.222656 100.921875 -3.492188 100.921875 -2.515625 C 100.921875 -1.191406 100.539062 -0.3125 99.78125 0.125 C 99.03125 0.570312 98.039062 0.796875 96.8125 0.796875 C 95.570312 0.796875 94.132812 0.660156 92.5 0.390625 C 90.863281 0.128906 89.289062 0 87.78125 0 C 86.375 0 85.160156 0.0625 84.140625 0.1875 C 83.117188 0.320312 82.035156 0.476562 80.890625 0.65625 C 79.117188 0.832031 77.679688 0.4375 76.578125 -0.53125 C 75.472656 -1.5 74.921875 -2.867188 74.921875 -4.640625 L 74.921875 -26.390625 C 74.921875 -30.628906 74.5 -33.851562 73.65625 -36.0625 C 72.820312 -38.28125 71.253906 -39.390625 68.953125 -39.390625 C 67.097656 -39.390625 65.503906 -38.570312 64.171875 -36.9375 C 62.847656 -35.300781 62.1875 -32.003906 62.1875 -27.046875 L 62.1875 -17.109375 C 62.1875 -14.015625 62.40625 -11.671875 62.84375 -10.078125 C 63.289062 -8.484375 63.820312 -7.3125 64.4375 -6.5625 C 65.0625 -5.8125 65.59375 -5.191406 66.03125 -4.703125 C 66.476562 -4.222656 66.703125 -3.492188 66.703125 -2.515625 C 66.703125 -1.191406 66.328125 -0.3125 65.578125 0.125 C 64.828125 0.570312 63.832031 0.796875 62.59375 0.796875 C 61.351562 0.796875 59.914062 0.660156 58.28125 0.390625 C 56.644531 0.128906 55.078125 0 53.578125 0 C 52.160156 0 50.941406 0.0625 49.921875 0.1875 C 48.910156 0.320312 47.828125 0.476562 46.671875 0.65625 C 44.910156 0.832031 43.476562 0.4375 42.375 -0.53125 C 41.269531 -1.5 40.71875 -2.867188 40.71875 -4.640625 L 40.71875 -26.390625 C 40.71875 -30.628906 40.273438 -33.851562 39.390625 -36.0625 C 38.503906 -38.28125 36.910156 -39.390625 34.609375 -39.390625 C 32.578125 -39.390625 30.941406 -38.347656 29.703125 -36.265625 C 28.460938 -34.191406 27.84375 -29.925781 27.84375 -23.46875 L 27.84375 -17.109375 C 27.84375 -14.015625 28.0625 -11.671875 28.5 -10.078125 C 28.945312 -8.484375 29.476562 -7.3125 30.09375 -6.5625 C 30.71875 -5.8125 31.25 -5.191406 31.6875 -4.703125 C 32.132812 -4.222656 32.359375 -3.492188 32.359375 -2.515625 C 32.359375 -1.191406 31.847656 -0.3125 30.828125 0.125 C 29.816406 0.570312 28.554688 0.796875 27.046875 0.796875 C 25.367188 0.796875 23.625 0.660156 21.8125 0.390625 C 20 0.128906 18.429688 0 17.109375 0 Z M 17.109375 0 "/></g></g></g><g fill="#000000" fill-opacity="1"><g transform="translate(179.944007, 164.140288)"><g><path d="M 14.9375 0.625 C 11.757812 0.625 9.519531 -1.046875 8.21875 -4.390625 C 6.925781 -7.742188 6.28125 -13.101562 6.28125 -20.46875 C 6.28125 -31.351562 7.828125 -41.691406 10.921875 -51.484375 C 11.671875 -53.910156 12.90625 -55.6875 14.625 -56.8125 C 16.34375 -57.945312 18.75 -58.515625 21.84375 -58.515625 C 23.519531 -58.515625 24.691406 -58.300781 25.359375 -57.875 C 26.035156 -57.457031 26.375 -56.664062 26.375 -55.5 C 26.375 -54.15625 25.742188 -51.140625 24.484375 -46.453125 C 23.648438 -43.109375 22.976562 -40.203125 22.46875 -37.734375 C 21.96875 -35.265625 21.550781 -32.1875 21.21875 -28.5 C 23.476562 -35.03125 26.175781 -40.554688 29.3125 -45.078125 C 32.457031 -49.597656 35.679688 -52.96875 38.984375 -55.1875 C 42.296875 -57.40625 45.414062 -58.515625 48.34375 -58.515625 C 51.269531 -58.515625 53.335938 -57.84375 54.546875 -56.5 C 55.765625 -55.164062 56.375 -53.113281 56.375 -50.34375 C 56.375 -47.664062 55.578125 -42.8125 53.984375 -35.78125 C 53.316406 -32.769531 52.859375 -30.507812 52.609375 -29 C 56.796875 -39.300781 61.441406 -46.796875 66.546875 -51.484375 C 71.648438 -56.171875 76.421875 -58.515625 80.859375 -58.515625 C 86.304688 -58.515625 89.03125 -55.789062 89.03125 -50.34375 C 89.03125 -47.082031 88.109375 -41.179688 86.265625 -32.640625 C 84.671875 -25.359375 83.875 -20.546875 83.875 -18.203125 C 83.875 -14.859375 85.085938 -13.1875 87.515625 -13.1875 C 89.191406 -13.1875 91.179688 -14.210938 93.484375 -16.265625 C 95.785156 -18.316406 98.859375 -21.644531 102.703125 -26.25 C 103.710938 -27.414062 104.84375 -28 106.09375 -28 C 107.1875 -28 108.046875 -27.492188 108.671875 -26.484375 C 109.296875 -25.484375 109.609375 -24.101562 109.609375 -22.34375 C 109.609375 -19 108.816406 -16.40625 107.234375 -14.5625 C 103.628906 -10.125 99.753906 -6.484375 95.609375 -3.640625 C 91.472656 -0.796875 86.765625 0.625 81.484375 0.625 C 77.222656 0.625 74.003906 -0.609375 71.828125 -3.078125 C 69.648438 -5.546875 68.5625 -9.125 68.5625 -13.8125 C 68.5625 -16.15625 69.144531 -20.34375 70.3125 -26.375 C 71.40625 -31.644531 71.953125 -35.285156 71.953125 -37.296875 C 71.953125 -38.628906 71.488281 -39.296875 70.5625 -39.296875 C 69.476562 -39.296875 67.929688 -37.894531 65.921875 -35.09375 C 63.910156 -32.289062 61.898438 -28.585938 59.890625 -23.984375 C 57.878906 -19.378906 56.25 -14.523438 55 -9.421875 C 54.070312 -5.398438 53 -2.71875 51.78125 -1.375 C 50.570312 -0.0390625 48.628906 0.625 45.953125 0.625 C 43.191406 0.625 41.117188 -0.691406 39.734375 -3.328125 C 38.359375 -5.960938 37.671875 -9.164062 37.671875 -12.9375 C 37.671875 -16.113281 38.085938 -20.71875 38.921875 -26.75 C 39.585938 -32.101562 39.921875 -35.617188 39.921875 -37.296875 C 39.921875 -38.628906 39.460938 -39.296875 38.546875 -39.296875 C 37.296875 -39.296875 35.707031 -37.789062 33.78125 -34.78125 C 31.851562 -31.769531 29.988281 -27.921875 28.1875 -23.234375 C 26.382812 -18.546875 24.941406 -13.941406 23.859375 -9.421875 C 22.929688 -5.484375 21.859375 -2.820312 20.640625 -1.4375 C 19.429688 -0.0625 17.53125 0.625 14.9375 0.625 Z M 14.9375 0.625 "/></g></g></g><g fill="#000000" fill-opacity="1"><g transform="translate(274.37024, 164.140288)"><g><path d="M 21.46875 0.625 C 16.28125 0.625 12.132812 -1.253906 9.03125 -5.015625 C 5.9375 -8.785156 4.390625 -13.726562 4.390625 -19.84375 C 4.390625 -26.539062 5.9375 -32.878906 9.03125 -38.859375 C 12.132812 -44.847656 16.257812 -49.660156 21.40625 -53.296875 C 26.550781 -56.941406 32.015625 -58.765625 37.796875 -58.765625 C 39.640625 -58.765625 40.875 -58.40625 41.5 -57.6875 C 42.125 -56.976562 42.644531 -55.703125 43.0625 -53.859375 C 44.820312 -54.203125 46.664062 -54.375 48.59375 -54.375 C 52.695312 -54.375 54.75 -52.90625 54.75 -49.96875 C 54.75 -48.21875 54.117188 -44.035156 52.859375 -37.421875 C 50.929688 -27.796875 49.96875 -21.097656 49.96875 -17.328125 C 49.96875 -16.066406 50.28125 -15.0625 50.90625 -14.3125 C 51.539062 -13.5625 52.359375 -13.1875 53.359375 -13.1875 C 54.953125 -13.1875 56.878906 -14.210938 59.140625 -16.265625 C 61.398438 -18.316406 64.457031 -21.644531 68.3125 -26.25 C 69.3125 -27.414062 70.441406 -28 71.703125 -28 C 72.785156 -28 73.640625 -27.492188 74.265625 -26.484375 C 74.898438 -25.484375 75.21875 -24.101562 75.21875 -22.34375 C 75.21875 -19 74.421875 -16.40625 72.828125 -14.5625 C 69.390625 -10.289062 65.742188 -6.691406 61.890625 -3.765625 C 58.046875 -0.835938 54.328125 0.625 50.734375 0.625 C 47.960938 0.625 45.425781 -0.3125 43.125 -2.1875 C 40.820312 -4.070312 39.085938 -6.648438 37.921875 -9.921875 C 33.566406 -2.890625 28.082031 0.625 21.46875 0.625 Z M 25.984375 -12.046875 C 27.828125 -12.046875 29.585938 -13.132812 31.265625 -15.3125 C 32.941406 -17.488281 34.15625 -20.378906 34.90625 -23.984375 L 39.546875 -47.078125 C 36.035156 -46.992188 32.789062 -45.675781 29.8125 -43.125 C 26.84375 -40.570312 24.476562 -37.203125 22.71875 -33.015625 C 20.96875 -28.835938 20.09375 -24.40625 20.09375 -19.71875 C 20.09375 -17.125 20.613281 -15.195312 21.65625 -13.9375 C 22.707031 -12.675781 24.148438 -12.046875 25.984375 -12.046875 Z M 25.984375 -12.046875 "/></g></g></g><g clip-path="url(#0d9bfeebbc)"><path fill="#ffffff" d="M 362.671875 89.949219 C 347.058594 92.824219 344.726562 95.152344 341.851562 110.769531 C 338.976562 95.152344 336.644531 92.824219 321.03125 89.949219 C 336.644531 87.074219 338.976562 84.742188 341.851562 69.125 C 344.726562 84.742188 347.058594 87.074219 362.671875 89.949219 Z M 362.671875 89.949219 " fill-opacity="1" fill-rule="nonzero"/></g><g clip-path="url(#2b9e0999af)"><path fill="#ffffff" d="M 41.644531 169.507812 C 26.027344 172.382812 23.695312 174.710938 20.820312 190.328125 C 17.945312 174.710938 15.617188 172.382812 0 169.507812 C 15.617188 166.632812 17.945312 164.300781 20.820312 148.6875 C 23.695312 164.300781 26.027344 166.632812 41.644531 169.507812 Z M 41.644531 169.507812 " fill-opacity="1" fill-rule="nonzero"/></g></g></g></svg>