<?xml version="1.0" encoding="UTF-8" standalone="no"?>
<svg
   width="133.2187"
   zoomAndPan="magnify"
   viewBox="0 0 99.914028 30.810141"
   height="41.080189"
   preserveAspectRatio="xMidYMid"
   version="1.0"
   id="svg62"
   xmlns="http://www.w3.org/2000/svg"
   xmlns:svg="http://www.w3.org/2000/svg">
  <defs
     id="defs4" />
  <g
     fill="#000000"
     fill-opacity="1"
     id="g7"
     transform="matrix(0.31110798,0,0,0.20840549,-13.600704,-24.558)">
    <g
       transform="translate(46.963853,242.17506)"
       id="g6">
      <g
         id="g5">
        <path
           d="m 2.6875,-12.890625 c 0,-1.789063 0.507812,-3.222656 1.53125,-4.296875 1.03125,-1.070312 2.535156,-1.609375 4.515625,-1.609375 1.695313,0 3.082031,0.632813 4.15625,1.890625 1.070313,1.25 2.1875,2.683594 3.34375,4.296875 1.164063,1.605469 2.644531,3.039063 4.4375,4.296875 1.789063,1.25 4.207031,1.875 7.25,1.875 2.332031,0 4.171875,-0.242188 5.515625,-0.734375 1.34375,-0.5 2.015625,-1.644531 2.015625,-3.4375 0,-1.425781 -0.789063,-2.585937 -2.359375,-3.484375 -1.5625,-0.894531 -3.554688,-1.722656 -5.96875,-2.484375 -2.417969,-0.757813 -4.992188,-1.609375 -7.71875,-2.546875 -2.730469,-0.945312 -5.304688,-2.132812 -7.71875,-3.5625 -2.417969,-1.4375 -4.414062,-3.296875 -5.984375,-5.578125 -1.5625,-2.28125 -2.34375,-5.164063 -2.34375,-8.65625 0,-3.9375 0.894531,-7.09375 2.6875,-9.46875 1.789063,-2.375 4.023437,-4.140625 6.703125,-5.296875 2.6875,-1.164062 5.347656,-1.925781 7.984375,-2.28125 2.644531,-0.363281 4.816406,-0.546875 6.515625,-0.546875 4.570312,0 8.828125,0.539063 12.765625,1.609375 3.9375,1.074219 7.113281,2.664062 9.53125,4.765625 2.414063,2.105469 3.625,4.683594 3.625,7.734375 0,1.523438 -0.5625,2.820312 -1.6875,3.890625 -1.117187,1.074219 -2.433594,1.609375 -3.953125,1.609375 -2.324219,0 -4.203125,-0.644531 -5.640625,-1.9375 C 40.460938,-38.144531 39.164062,-39.625 38,-41.28125 c -1.167969,-1.65625 -2.511719,-3.132812 -4.03125,-4.4375 -1.523438,-1.300781 -3.492188,-1.953125 -5.90625,-1.953125 -2.417969,0 -4.007812,0.5625 -4.765625,1.6875 -0.761719,1.117187 -1.140625,2.257813 -1.140625,3.421875 0,1.699219 0.757812,2.996094 2.28125,3.890625 1.519531,0.898437 3.488281,1.636719 5.90625,2.21875 2.414062,0.585937 4.96875,1.234375 7.65625,1.953125 2.6875,0.710938 5.238281,1.667969 7.65625,2.875 2.414062,1.210938 4.382812,2.914062 5.90625,5.109375 1.519531,2.1875 2.28125,5.074219 2.28125,8.65625 0,4.5625 -1.324219,8.214844 -3.96875,10.953125 C 47.238281,-4.175781 43.859375,-2.207031 39.734375,-1 35.617188,0.207031 31.28125,0.8125 26.71875,0.8125 c -1.875,0 -4.15625,-0.226562 -6.84375,-0.671875 -2.6875,-0.445313 -5.355469,-1.1875 -8,-2.21875 -2.636719,-1.03125 -4.828125,-2.414063 -6.578125,-4.15625 -1.742187,-1.75 -2.609375,-3.96875 -2.609375,-6.65625 z m 0,0"
           id="path5" />
      </g>
    </g>
  </g>
  <g
     fill="#000000"
     fill-opacity="1"
     id="g10"
     transform="matrix(0.31110798,0,0,0.20840549,-13.600704,-24.558)">
    <g
       transform="translate(102.95092,242.17506)"
       id="g9">
      <g
         id="g8">
        <path
           d="m 16.65625,22.6875 c -1.34375,0 -2.9375,0.132812 -4.78125,0.40625 C 10.039062,23.363281 8.320312,23.5 6.71875,23.5 5.195312,23.5 3.921875,23.273438 2.890625,22.828125 1.859375,22.378906 1.34375,21.484375 1.34375,20.140625 c 0,-0.992187 0.222656,-1.730469 0.671875,-2.21875 C 2.460938,17.429688 3,16.804688 3.625,16.046875 4.25,15.285156 4.785156,14.097656 5.234375,12.484375 5.679688,10.867188 5.90625,8.5 5.90625,5.375 c 0,-3.042969 0,-6.578125 0,-10.609375 0,-4.03125 0.019531,-8.035156 0.0625,-12.015625 0.050781,-3.988281 0.078125,-7.4375 0.078125,-10.34375 0,-2.90625 0,-4.757812 0,-5.5625 0,-2.414062 -0.382813,-4.09375 -1.140625,-5.03125 -0.761719,-0.945312 -1.523438,-1.6875 -2.28125,-2.21875 -0.761719,-0.539062 -1.140625,-1.394531 -1.140625,-2.5625 0,-1.34375 0.441406,-2.257812 1.328125,-2.75 0.894531,-0.488281 2.171875,-0.910156 3.828125,-1.265625 1.65625,-0.363281 3.648437,-0.945313 5.984375,-1.75 2.863281,-1.070313 4.832031,-2.035156 5.90625,-2.890625 1.070312,-0.851562 1.875,-1.546875 2.40625,-2.078125 0.539062,-0.539063 1.394531,-0.8125 2.5625,-0.8125 1.601562,0 2.675781,0.71875 3.21875,2.15625 0.539062,1.429687 0.8125,3.125 0.8125,5.09375 V -47.125 c 0,1.429688 0.109375,2.121094 0.328125,2.078125 0.226563,-0.03906 0.65625,-0.53125 1.28125,-1.46875 0.625,-0.945313 1.492187,-2.046875 2.609375,-3.296875 1.125,-1.25 2.578125,-2.34375 4.359375,-3.28125 1.789063,-0.945312 3.941406,-1.421875 6.453125,-1.421875 4.5625,0 8.382812,1.34375 11.46875,4.03125 3.09375,2.6875 5.421875,6.117187 6.984375,10.28125 1.570313,4.15625 2.332031,8.609375 2.28125,13.359375 -0.04297,4.742188 -0.890625,9.195312 -2.546875,13.359375 -1.65625,4.15625 -4.121094,7.578125 -7.390625,10.265625 -3.261719,2.6875 -7.355469,4.03125 -12.28125,4.03125 -2.679687,0 -5,-0.402344 -6.96875,-1.203125 -1.96875,-0.8125 -3.539063,-1.84375 -4.703125,-3.09375 -0.71875,-0.8125 -1.214844,-1.171875 -1.484375,-1.078125 -0.261719,0.085938 -0.390625,0.621094 -0.390625,1.609375 V 5.375 c 0,3.125 0.21875,5.492188 0.65625,7.109375 0.445312,1.613281 0.984375,2.800781 1.609375,3.5625 0.632813,0.757813 1.175781,1.382813 1.625,1.875 0.445313,0.488281 0.671875,1.226563 0.671875,2.21875 0,1.34375 -0.515625,2.238281 -1.546875,2.6875 C 29.515625,23.273438 28.238281,23.5 26.71875,23.5 c -1.699219,0 -3.46875,-0.136719 -5.3125,-0.40625 -1.835938,-0.273438 -3.417969,-0.40625 -4.75,-0.40625 z m 17.453125,-62.03125 c -2.417969,0 -4.230469,1.527344 -5.4375,4.578125 -1.210937,3.042969 -1.8125,6.574219 -1.8125,10.59375 0,4.03125 0.601563,7.480469 1.8125,10.34375 1.207031,2.867187 3.019531,4.296875 5.4375,4.296875 2.414063,0 4.226563,-1.453125 5.4375,-4.359375 1.207031,-2.914063 1.8125,-6.382813 1.8125,-10.40625 0,-4.03125 -0.605469,-7.546875 -1.8125,-10.546875 -1.210937,-3 -3.023437,-4.5 -5.4375,-4.5 z m 0,0"
           id="path7" />
      </g>
    </g>
  </g>
  <g
     fill="#000000"
     fill-opacity="1"
     id="g13"
     transform="matrix(0.31110798,0,0,0.20840549,-13.600704,-24.558)">
    <g
       transform="translate(168.33631,242.17506)"
       id="g12">
      <g
         id="g11">
        <path
           d="m 32.359375,0.8125 c -4.75,0 -9.40625,-0.9375 -13.96875,-2.8125 -4.5625,-1.882812 -8.324219,-4.84375 -11.28125,-8.875 C 4.160156,-14.90625 2.6875,-20.1875 2.6875,-26.71875 c 0,-5.550781 1.207031,-10.40625 3.625,-14.5625 2.414062,-4.164062 5.769531,-7.410156 10.0625,-9.734375 4.300781,-2.332031 9.269531,-3.5 14.90625,-3.5 5.550781,0 10.070312,0.671875 13.5625,2.015625 3.488281,1.34375 6.195312,3.070312 8.125,5.171875 1.925781,2.105469 3.242188,4.257813 3.953125,6.453125 0.71875,2.1875 1.078125,4.089844 1.078125,5.703125 0,4.46875 -1.390625,8.117187 -4.171875,10.9375 -2.773437,2.824219 -6.308594,4.886719 -10.609375,6.1875 -4.292969,1.292969 -8.671875,1.9375 -13.140625,1.9375 -1.25,0 -2.167969,0.449219 -2.75,1.34375 -0.585937,0.898437 -0.765625,1.929687 -0.546875,3.09375 0.226562,1.15625 0.945312,2.183594 2.15625,3.078125 1.207031,0.898438 2.929688,1.34375 5.171875,1.34375 3.21875,0 5.765625,-0.578125 7.640625,-1.734375 1.882812,-1.164063 3.382812,-2.507813 4.5,-4.03125 1.125,-1.53125 2.195312,-2.875 3.21875,-4.03125 1.03125,-1.164063 2.398438,-1.75 4.109375,-1.75 1.519531,0 2.660156,0.46875 3.421875,1.40625 0.757812,0.9375 1.140625,1.992187 1.140625,3.15625 0,3.042969 -1.1875,5.683594 -3.5625,7.921875 -2.375,2.242188 -5.53125,3.992188 -9.46875,5.25 -3.9375,1.25 -8.1875,1.875 -12.75,1.875 z M 31.28125,-47.671875 c -1.875,0 -3.375,1.121094 -4.5,3.359375 -1.117188,2.242188 -1.671875,5.242188 -1.671875,9 0,3.761719 0.554687,6.761719 1.671875,9 1.125,2.242188 2.625,3.359375 4.5,3.359375 1.882812,0 3.382812,-1.117187 4.5,-3.359375 1.113281,-2.238281 1.671875,-5.238281 1.671875,-9 0,-3.757812 -0.558594,-6.757812 -1.671875,-9 -1.117188,-2.238281 -2.617188,-3.359375 -4.5,-3.359375 z m 0,0"
           id="path10" />
      </g>
    </g>
  </g>
  <g
     fill="#000000"
     fill-opacity="1"
     id="g16"
     transform="matrix(0.31110798,0,0,0.20840549,-13.600704,-24.558)">
    <g
       transform="translate(228.61976,242.17506)"
       id="g15">
      <g
         id="g14">
        <path
           d="m 17.453125,0.8125 c -5.011719,0 -8.726563,-1.476562 -11.140625,-4.4375 -2.417969,-2.957031 -3.625,-6.492188 -3.625,-10.609375 0,-6 2.234375,-10.71875 6.703125,-14.15625 4.476563,-3.445313 10.300781,-5.929687 17.46875,-7.453125 6.800781,-1.4375 10.203125,-3.675781 10.203125,-6.71875 0,-1.164062 -0.496094,-2.304688 -1.484375,-3.421875 -0.980469,-1.125 -2.679687,-1.6875 -5.09375,-1.6875 -2.417969,0 -4.390625,0.652344 -5.921875,1.953125 -1.523438,1.304688 -2.867188,2.78125 -4.03125,4.4375 -1.15625,1.65625 -2.429688,3.136719 -3.8125,4.4375 -1.386719,1.292969 -3.246094,1.9375 -5.578125,1.9375 -1.523437,0 -2.84375,-0.535156 -3.96875,-1.609375 C 6.054688,-37.585938 5.5,-38.882812 5.5,-40.40625 c 0,-3.050781 1.207031,-5.628906 3.625,-7.734375 2.414062,-2.101563 5.570312,-3.691406 9.46875,-4.765625 3.894531,-1.070312 8.125,-1.609375 12.6875,-1.609375 4.925781,0 9.398438,0.789063 13.421875,2.359375 4.03125,1.5625 7.253906,4.183594 9.671875,7.859375 2.414062,3.667969 3.625,8.679687 3.625,15.03125 V -17.3125 c 0,3.125 0.222656,5.496094 0.671875,7.109375 0.445313,1.617187 0.984375,2.804687 1.609375,3.5625 0.625,0.761719 1.160156,1.386719 1.609375,1.875 0.445313,0.492187 0.671875,1.230469 0.671875,2.21875 0,1.34375 -0.402344,2.242187 -1.203125,2.6875 -0.804687,0.445313 -1.835937,0.671875 -3.09375,0.671875 -1.34375,0 -2.824219,-0.136719 -4.4375,-0.40625 C 52.222656,0.132812 50.75,0 49.40625,0 c -1.429688,0 -2.679688,0.0664062 -3.75,0.203125 -1.074219,0.132813 -2.195312,0.289063 -3.359375,0.46875 -1.4375,0.175781 -2.71875,-0.007813 -3.84375,-0.546875 -1.117187,-0.53125 -1.761719,-1.507812 -1.9375,-2.9375 C 36.429688,-4.25 36.207031,-5.210938 35.84375,-5.703125 35.488281,-6.191406 35.039062,-6.4375 34.5,-6.4375 c -0.980469,0 -2.257812,0.605469 -3.828125,1.8125 -1.5625,1.210938 -3.445313,2.417969 -5.640625,3.625 -2.1875,1.207031 -4.714844,1.8125 -7.578125,1.8125 z M 23.5,-19.734375 c 0,2.59375 0.644531,4.453125 1.9375,5.578125 1.300781,1.117188 2.847656,1.671875 4.640625,1.671875 2.238281,0 3.9375,-0.960937 5.09375,-2.890625 1.164063,-1.925781 1.75,-4.1875 1.75,-6.78125 v -6.4375 c 0,-2.414062 -1.121094,-3.046875 -3.359375,-1.890625 -1.429688,0.71875 -2.929688,1.507813 -4.5,2.359375 -1.5625,0.84375 -2.882812,1.898438 -3.953125,3.15625 -1.074219,1.25 -1.609375,2.996094 -1.609375,5.234375 z m 0,0"
           id="path13" />
      </g>
    </g>
  </g>
  <g
     fill="#000000"
     fill-opacity="1"
     id="g19"
     transform="matrix(0.31110798,0,0,0.20840549,-13.600704,-24.558)">
    <g
       transform="translate(291.99123,242.17506)"
       id="g18">
      <g
         id="g17">
        <path
           d="m 1.34375,-2.546875 c 0,-0.988281 0.222656,-1.726563 0.671875,-2.21875 C 2.460938,-5.253906 3,-5.878906 3.625,-6.640625 4.25,-7.398438 4.785156,-8.585938 5.234375,-10.203125 5.679688,-11.816406 5.90625,-14.1875 5.90625,-17.3125 c 0,-4.125 0.019531,-7.101562 0.0625,-8.9375 0.050781,-1.832031 0.078125,-3.171875 0.078125,-4.015625 0,-0.851563 0,-1.816406 0,-2.890625 0,-2.414062 -0.382813,-4.09375 -1.140625,-5.03125 -0.761719,-0.945312 -1.523438,-1.6875 -2.28125,-2.21875 -0.761719,-0.539062 -1.140625,-1.394531 -1.140625,-2.5625 0,-1.34375 0.441406,-2.257812 1.328125,-2.75 0.894531,-0.488281 2.171875,-0.910156 3.828125,-1.265625 1.65625,-0.363281 3.648437,-0.945313 5.984375,-1.75 2.863281,-1.070313 4.832031,-2.035156 5.90625,-2.890625 1.070312,-0.851562 1.875,-1.546875 2.40625,-2.078125 0.539062,-0.539063 1.394531,-0.8125 2.5625,-0.8125 1.601562,0 2.675781,0.71875 3.21875,2.15625 0.539062,1.429687 0.8125,3.125 0.8125,5.09375 v 0.546875 c 0,2.230469 0.03906,3.324219 0.125,3.28125 0.09375,-0.03906 0.71875,-1.046875 1.875,-3.015625 1.53125,-2.59375 3.660156,-4.582031 6.390625,-5.96875 2.726563,-1.394531 5.34375,-2.09375 7.84375,-2.09375 4.925781,0 8.101563,1.054687 9.53125,3.15625 1.4375,2.105469 1.484375,5.171875 0.140625,9.203125 -1.074219,3.21875 -2.039062,5.433594 -2.890625,6.640625 -0.84375,1.210937 -1.671875,1.8125 -2.484375,1.8125 -0.898438,0 -1.882812,-0.535156 -2.953125,-1.609375 -1.074219,-1.070312 -2.261719,-2.125 -3.5625,-3.15625 -1.292969,-1.03125 -2.882813,-1.546875 -4.765625,-1.546875 -1.074219,0 -2.351562,0.359375 -3.828125,1.078125 -1.46875,0.71875 -2.742187,2.023438 -3.8125,3.90625 -1.074219,1.875 -1.609375,4.511719 -1.609375,7.90625 v 9.8125 c 0,3.125 0.21875,5.496094 0.65625,7.109375 0.445312,1.617187 0.984375,2.804687 1.609375,3.5625 0.632813,0.761719 1.175781,1.386719 1.625,1.875 0.445313,0.492187 0.671875,1.230469 0.671875,2.21875 0,1.34375 -0.515625,2.242187 -1.546875,2.6875 C 29.515625,0.585938 28.238281,0.8125 26.71875,0.8125 25.019531,0.8125 23.25,0.675781 21.40625,0.40625 19.570312,0.132812 17.988281,0 16.65625,0 15.3125,0 13.71875,0.132812 11.875,0.40625 10.039062,0.675781 8.320312,0.8125 6.71875,0.8125 5.195312,0.8125 3.921875,0.585938 2.890625,0.140625 1.859375,-0.304688 1.34375,-1.203125 1.34375,-2.546875 Z m 0,0"
           id="path16" />
      </g>
    </g>
  </g>
  <g
     fill="#fc64ab"
     fill-opacity="1"
     id="g22"
     transform="matrix(0.31110798,0,0,0.20840549,-13.600704,-24.558)">
    <g
       transform="translate(41.029493,236.2407)"
       id="g21">
      <g
         id="g20">
        <path
           d="m 2.6875,-12.890625 c 0,-1.789063 0.507812,-3.222656 1.53125,-4.296875 1.03125,-1.070312 2.535156,-1.609375 4.515625,-1.609375 1.695313,0 3.082031,0.632813 4.15625,1.890625 1.070313,1.25 2.1875,2.683594 3.34375,4.296875 1.164063,1.605469 2.644531,3.039063 4.4375,4.296875 1.789063,1.25 4.207031,1.875 7.25,1.875 2.332031,0 4.171875,-0.242188 5.515625,-0.734375 1.34375,-0.5 2.015625,-1.644531 2.015625,-3.4375 0,-1.425781 -0.789063,-2.585937 -2.359375,-3.484375 -1.5625,-0.894531 -3.554688,-1.722656 -5.96875,-2.484375 -2.417969,-0.757813 -4.992188,-1.609375 -7.71875,-2.546875 -2.730469,-0.945312 -5.304688,-2.132812 -7.71875,-3.5625 -2.417969,-1.4375 -4.414062,-3.296875 -5.984375,-5.578125 -1.5625,-2.28125 -2.34375,-5.164063 -2.34375,-8.65625 0,-3.9375 0.894531,-7.09375 2.6875,-9.46875 1.789063,-2.375 4.023437,-4.140625 6.703125,-5.296875 2.6875,-1.164062 5.347656,-1.925781 7.984375,-2.28125 2.644531,-0.363281 4.816406,-0.546875 6.515625,-0.546875 4.570312,0 8.828125,0.539063 12.765625,1.609375 3.9375,1.074219 7.113281,2.664062 9.53125,4.765625 2.414063,2.105469 3.625,4.683594 3.625,7.734375 0,1.523438 -0.5625,2.820312 -1.6875,3.890625 -1.117187,1.074219 -2.433594,1.609375 -3.953125,1.609375 -2.324219,0 -4.203125,-0.644531 -5.640625,-1.9375 C 40.460938,-38.144531 39.164062,-39.625 38,-41.28125 c -1.167969,-1.65625 -2.511719,-3.132812 -4.03125,-4.4375 -1.523438,-1.300781 -3.492188,-1.953125 -5.90625,-1.953125 -2.417969,0 -4.007812,0.5625 -4.765625,1.6875 -0.761719,1.117187 -1.140625,2.257813 -1.140625,3.421875 0,1.699219 0.757812,2.996094 2.28125,3.890625 1.519531,0.898437 3.488281,1.636719 5.90625,2.21875 2.414062,0.585937 4.96875,1.234375 7.65625,1.953125 2.6875,0.710938 5.238281,1.667969 7.65625,2.875 2.414062,1.210938 4.382812,2.914062 5.90625,5.109375 1.519531,2.1875 2.28125,5.074219 2.28125,8.65625 0,4.5625 -1.324219,8.214844 -3.96875,10.953125 C 47.238281,-4.175781 43.859375,-2.207031 39.734375,-1 35.617188,0.207031 31.28125,0.8125 26.71875,0.8125 c -1.875,0 -4.15625,-0.226562 -6.84375,-0.671875 -2.6875,-0.445313 -5.355469,-1.1875 -8,-2.21875 -2.636719,-1.03125 -4.828125,-2.414063 -6.578125,-4.15625 -1.742187,-1.75 -2.609375,-3.96875 -2.609375,-6.65625 z m 0,0"
           id="path19" />
      </g>
    </g>
  </g>
  <g
     fill="#fc64ab"
     fill-opacity="1"
     id="g25"
     transform="matrix(0.31110798,0,0,0.20840549,-13.600704,-24.558)">
    <g
       transform="translate(97.016562,236.2407)"
       id="g24">
      <g
         id="g23">
        <path
           d="m 16.65625,22.6875 c -1.34375,0 -2.9375,0.132812 -4.78125,0.40625 C 10.039062,23.363281 8.320312,23.5 6.71875,23.5 5.195312,23.5 3.921875,23.273438 2.890625,22.828125 1.859375,22.378906 1.34375,21.484375 1.34375,20.140625 c 0,-0.992187 0.222656,-1.730469 0.671875,-2.21875 C 2.460938,17.429688 3,16.804688 3.625,16.046875 4.25,15.285156 4.785156,14.097656 5.234375,12.484375 5.679688,10.867188 5.90625,8.5 5.90625,5.375 c 0,-3.042969 0,-6.578125 0,-10.609375 0,-4.03125 0.019531,-8.035156 0.0625,-12.015625 0.050781,-3.988281 0.078125,-7.4375 0.078125,-10.34375 0,-2.90625 0,-4.757812 0,-5.5625 0,-2.414062 -0.382813,-4.09375 -1.140625,-5.03125 -0.761719,-0.945312 -1.523438,-1.6875 -2.28125,-2.21875 -0.761719,-0.539062 -1.140625,-1.394531 -1.140625,-2.5625 0,-1.34375 0.441406,-2.257812 1.328125,-2.75 0.894531,-0.488281 2.171875,-0.910156 3.828125,-1.265625 1.65625,-0.363281 3.648437,-0.945313 5.984375,-1.75 2.863281,-1.070313 4.832031,-2.035156 5.90625,-2.890625 1.070312,-0.851562 1.875,-1.546875 2.40625,-2.078125 0.539062,-0.539063 1.394531,-0.8125 2.5625,-0.8125 1.601562,0 2.675781,0.71875 3.21875,2.15625 0.539062,1.429687 0.8125,3.125 0.8125,5.09375 V -47.125 c 0,1.429688 0.109375,2.121094 0.328125,2.078125 0.226563,-0.03906 0.65625,-0.53125 1.28125,-1.46875 0.625,-0.945313 1.492187,-2.046875 2.609375,-3.296875 1.125,-1.25 2.578125,-2.34375 4.359375,-3.28125 1.789063,-0.945312 3.941406,-1.421875 6.453125,-1.421875 4.5625,0 8.382812,1.34375 11.46875,4.03125 3.09375,2.6875 5.421875,6.117187 6.984375,10.28125 1.570313,4.15625 2.332031,8.609375 2.28125,13.359375 -0.04297,4.742188 -0.890625,9.195312 -2.546875,13.359375 -1.65625,4.15625 -4.121094,7.578125 -7.390625,10.265625 -3.261719,2.6875 -7.355469,4.03125 -12.28125,4.03125 -2.679687,0 -5,-0.402344 -6.96875,-1.203125 -1.96875,-0.8125 -3.539063,-1.84375 -4.703125,-3.09375 -0.71875,-0.8125 -1.214844,-1.171875 -1.484375,-1.078125 -0.261719,0.085938 -0.390625,0.621094 -0.390625,1.609375 V 5.375 c 0,3.125 0.21875,5.492188 0.65625,7.109375 0.445312,1.613281 0.984375,2.800781 1.609375,3.5625 0.632813,0.757813 1.175781,1.382813 1.625,1.875 0.445313,0.488281 0.671875,1.226563 0.671875,2.21875 0,1.34375 -0.515625,2.238281 -1.546875,2.6875 C 29.515625,23.273438 28.238281,23.5 26.71875,23.5 c -1.699219,0 -3.46875,-0.136719 -5.3125,-0.40625 -1.835938,-0.273438 -3.417969,-0.40625 -4.75,-0.40625 z m 17.453125,-62.03125 c -2.417969,0 -4.230469,1.527344 -5.4375,4.578125 -1.210937,3.042969 -1.8125,6.574219 -1.8125,10.59375 0,4.03125 0.601563,7.480469 1.8125,10.34375 1.207031,2.867187 3.019531,4.296875 5.4375,4.296875 2.414063,0 4.226563,-1.453125 5.4375,-4.359375 1.207031,-2.914063 1.8125,-6.382813 1.8125,-10.40625 0,-4.03125 -0.605469,-7.546875 -1.8125,-10.546875 -1.210937,-3 -3.023437,-4.5 -5.4375,-4.5 z m 0,0"
           id="path22" />
      </g>
    </g>
  </g>
  <g
     fill="#fc64ab"
     fill-opacity="1"
     id="g28"
     transform="matrix(0.31110798,0,0,0.20840549,-13.600704,-24.558)">
    <g
       transform="translate(162.40195,236.2407)"
       id="g27">
      <g
         id="g26">
        <path
           d="m 32.359375,0.8125 c -4.75,0 -9.40625,-0.9375 -13.96875,-2.8125 -4.5625,-1.882812 -8.324219,-4.84375 -11.28125,-8.875 C 4.160156,-14.90625 2.6875,-20.1875 2.6875,-26.71875 c 0,-5.550781 1.207031,-10.40625 3.625,-14.5625 2.414062,-4.164062 5.769531,-7.410156 10.0625,-9.734375 4.300781,-2.332031 9.269531,-3.5 14.90625,-3.5 5.550781,0 10.070312,0.671875 13.5625,2.015625 3.488281,1.34375 6.195312,3.070312 8.125,5.171875 1.925781,2.105469 3.242188,4.257813 3.953125,6.453125 0.71875,2.1875 1.078125,4.089844 1.078125,5.703125 0,4.46875 -1.390625,8.117187 -4.171875,10.9375 -2.773437,2.824219 -6.308594,4.886719 -10.609375,6.1875 -4.292969,1.292969 -8.671875,1.9375 -13.140625,1.9375 -1.25,0 -2.167969,0.449219 -2.75,1.34375 -0.585937,0.898437 -0.765625,1.929687 -0.546875,3.09375 0.226562,1.15625 0.945312,2.183594 2.15625,3.078125 1.207031,0.898438 2.929688,1.34375 5.171875,1.34375 3.21875,0 5.765625,-0.578125 7.640625,-1.734375 1.882812,-1.164063 3.382812,-2.507813 4.5,-4.03125 1.125,-1.53125 2.195312,-2.875 3.21875,-4.03125 1.03125,-1.164063 2.398438,-1.75 4.109375,-1.75 1.519531,0 2.660156,0.46875 3.421875,1.40625 0.757812,0.9375 1.140625,1.992187 1.140625,3.15625 0,3.042969 -1.1875,5.683594 -3.5625,7.921875 -2.375,2.242188 -5.53125,3.992188 -9.46875,5.25 -3.9375,1.25 -8.1875,1.875 -12.75,1.875 z M 31.28125,-47.671875 c -1.875,0 -3.375,1.121094 -4.5,3.359375 -1.117188,2.242188 -1.671875,5.242188 -1.671875,9 0,3.761719 0.554687,6.761719 1.671875,9 1.125,2.242188 2.625,3.359375 4.5,3.359375 1.882812,0 3.382812,-1.117187 4.5,-3.359375 1.113281,-2.238281 1.671875,-5.238281 1.671875,-9 0,-3.757812 -0.558594,-6.757812 -1.671875,-9 -1.117188,-2.238281 -2.617188,-3.359375 -4.5,-3.359375 z m 0,0"
           id="path25" />
      </g>
    </g>
  </g>
  <g
     fill="#fc64ab"
     fill-opacity="1"
     id="g31"
     transform="matrix(0.31110798,0,0,0.20840549,-13.600704,-24.558)">
    <g
       transform="translate(222.6854,236.2407)"
       id="g30">
      <g
         id="g29">
        <path
           d="m 17.453125,0.8125 c -5.011719,0 -8.726563,-1.476562 -11.140625,-4.4375 -2.417969,-2.957031 -3.625,-6.492188 -3.625,-10.609375 0,-6 2.234375,-10.71875 6.703125,-14.15625 4.476563,-3.445313 10.300781,-5.929687 17.46875,-7.453125 6.800781,-1.4375 10.203125,-3.675781 10.203125,-6.71875 0,-1.164062 -0.496094,-2.304688 -1.484375,-3.421875 -0.980469,-1.125 -2.679687,-1.6875 -5.09375,-1.6875 -2.417969,0 -4.390625,0.652344 -5.921875,1.953125 -1.523438,1.304688 -2.867188,2.78125 -4.03125,4.4375 -1.15625,1.65625 -2.429688,3.136719 -3.8125,4.4375 -1.386719,1.292969 -3.246094,1.9375 -5.578125,1.9375 -1.523437,0 -2.84375,-0.535156 -3.96875,-1.609375 C 6.054688,-37.585938 5.5,-38.882812 5.5,-40.40625 c 0,-3.050781 1.207031,-5.628906 3.625,-7.734375 2.414062,-2.101563 5.570312,-3.691406 9.46875,-4.765625 3.894531,-1.070312 8.125,-1.609375 12.6875,-1.609375 4.925781,0 9.398438,0.789063 13.421875,2.359375 4.03125,1.5625 7.253906,4.183594 9.671875,7.859375 2.414062,3.667969 3.625,8.679687 3.625,15.03125 V -17.3125 c 0,3.125 0.222656,5.496094 0.671875,7.109375 0.445313,1.617187 0.984375,2.804687 1.609375,3.5625 0.625,0.761719 1.160156,1.386719 1.609375,1.875 0.445313,0.492187 0.671875,1.230469 0.671875,2.21875 0,1.34375 -0.402344,2.242187 -1.203125,2.6875 -0.804687,0.445313 -1.835937,0.671875 -3.09375,0.671875 -1.34375,0 -2.824219,-0.136719 -4.4375,-0.40625 C 52.222656,0.132812 50.75,0 49.40625,0 c -1.429688,0 -2.679688,0.0664062 -3.75,0.203125 -1.074219,0.132813 -2.195312,0.289063 -3.359375,0.46875 -1.4375,0.175781 -2.71875,-0.007813 -3.84375,-0.546875 -1.117187,-0.53125 -1.761719,-1.507812 -1.9375,-2.9375 C 36.429688,-4.25 36.207031,-5.210938 35.84375,-5.703125 35.488281,-6.191406 35.039062,-6.4375 34.5,-6.4375 c -0.980469,0 -2.257812,0.605469 -3.828125,1.8125 -1.5625,1.210938 -3.445313,2.417969 -5.640625,3.625 -2.1875,1.207031 -4.714844,1.8125 -7.578125,1.8125 z M 23.5,-19.734375 c 0,2.59375 0.644531,4.453125 1.9375,5.578125 1.300781,1.117188 2.847656,1.671875 4.640625,1.671875 2.238281,0 3.9375,-0.960937 5.09375,-2.890625 1.164063,-1.925781 1.75,-4.1875 1.75,-6.78125 v -6.4375 c 0,-2.414062 -1.121094,-3.046875 -3.359375,-1.890625 -1.429688,0.71875 -2.929688,1.507813 -4.5,2.359375 -1.5625,0.84375 -2.882812,1.898438 -3.953125,3.15625 -1.074219,1.25 -1.609375,2.996094 -1.609375,5.234375 z m 0,0"
           id="path28" />
      </g>
    </g>
  </g>
  <g
     fill="#fc64ab"
     fill-opacity="1"
     id="g34"
     transform="matrix(0.31110798,0,0,0.20840549,-13.600704,-24.558)">
    <g
       transform="translate(286.05687,236.2407)"
       id="g33">
      <g
         id="g32">
        <path
           d="m 1.34375,-2.546875 c 0,-0.988281 0.222656,-1.726563 0.671875,-2.21875 C 2.460938,-5.253906 3,-5.878906 3.625,-6.640625 4.25,-7.398438 4.785156,-8.585938 5.234375,-10.203125 5.679688,-11.816406 5.90625,-14.1875 5.90625,-17.3125 c 0,-4.125 0.019531,-7.101562 0.0625,-8.9375 0.050781,-1.832031 0.078125,-3.171875 0.078125,-4.015625 0,-0.851563 0,-1.816406 0,-2.890625 0,-2.414062 -0.382813,-4.09375 -1.140625,-5.03125 -0.761719,-0.945312 -1.523438,-1.6875 -2.28125,-2.21875 -0.761719,-0.539062 -1.140625,-1.394531 -1.140625,-2.5625 0,-1.34375 0.441406,-2.257812 1.328125,-2.75 0.894531,-0.488281 2.171875,-0.910156 3.828125,-1.265625 1.65625,-0.363281 3.648437,-0.945313 5.984375,-1.75 2.863281,-1.070313 4.832031,-2.035156 5.90625,-2.890625 1.070312,-0.851562 1.875,-1.546875 2.40625,-2.078125 0.539062,-0.539063 1.394531,-0.8125 2.5625,-0.8125 1.601562,0 2.675781,0.71875 3.21875,2.15625 0.539062,1.429687 0.8125,3.125 0.8125,5.09375 v 0.546875 c 0,2.230469 0.03906,3.324219 0.125,3.28125 0.09375,-0.03906 0.71875,-1.046875 1.875,-3.015625 1.53125,-2.59375 3.660156,-4.582031 6.390625,-5.96875 2.726563,-1.394531 5.34375,-2.09375 7.84375,-2.09375 4.925781,0 8.101563,1.054687 9.53125,3.15625 1.4375,2.105469 1.484375,5.171875 0.140625,9.203125 -1.074219,3.21875 -2.039062,5.433594 -2.890625,6.640625 -0.84375,1.210937 -1.671875,1.8125 -2.484375,1.8125 -0.898438,0 -1.882812,-0.535156 -2.953125,-1.609375 -1.074219,-1.070312 -2.261719,-2.125 -3.5625,-3.15625 -1.292969,-1.03125 -2.882813,-1.546875 -4.765625,-1.546875 -1.074219,0 -2.351562,0.359375 -3.828125,1.078125 -1.46875,0.71875 -2.742187,2.023438 -3.8125,3.90625 -1.074219,1.875 -1.609375,4.511719 -1.609375,7.90625 v 9.8125 c 0,3.125 0.21875,5.496094 0.65625,7.109375 0.445312,1.617187 0.984375,2.804687 1.609375,3.5625 0.632813,0.761719 1.175781,1.386719 1.625,1.875 0.445313,0.492187 0.671875,1.230469 0.671875,2.21875 0,1.34375 -0.515625,2.242187 -1.546875,2.6875 C 29.515625,0.585938 28.238281,0.8125 26.71875,0.8125 25.019531,0.8125 23.25,0.675781 21.40625,0.40625 19.570312,0.132812 17.988281,0 16.65625,0 15.3125,0 13.71875,0.132812 11.875,0.40625 10.039062,0.675781 8.320312,0.8125 6.71875,0.8125 5.195312,0.8125 3.921875,0.585938 2.890625,0.140625 1.859375,-0.304688 1.34375,-1.203125 1.34375,-2.546875 Z m 0,0"
           id="path31" />
      </g>
    </g>
  </g>
  <g
     fill="#000000"
     fill-opacity="1"
     id="g37"
     transform="matrix(0.31110798,0,0,0.20840549,-13.600704,-24.558)">
    <g
       transform="translate(50.427324,182.15311)"
       id="g36">
      <g
         id="g35">
        <path
           d="m 62.03125,-28 c 1.09375,0 1.953125,0.507812 2.578125,1.515625 0.625,1 0.9375,2.375 0.9375,4.125 0,3.355469 -0.792969,5.953125 -2.375,7.796875 C 60.066406,-10.800781 55.6875,-7.328125 50.03125,-4.140625 44.382812,-0.960938 38.335938,0.625 31.890625,0.625 c -8.78125,0 -15.605469,-2.382812 -20.46875,-7.15625 -4.855469,-4.769531 -7.28125,-11.300781 -7.28125,-19.59375 0,-5.769531 1.210937,-11.144531 3.640625,-16.125 2.425781,-4.988281 5.796875,-8.945312 10.109375,-11.875 4.3125,-2.925781 9.191406,-4.390625 14.640625,-4.390625 4.851562,0 8.742188,1.445313 11.671875,4.328125 2.925781,2.886719 4.390625,6.796875 4.390625,11.734375 0,5.78125 -2.074219,10.746094 -6.21875,14.890625 -4.136719,4.148438 -11.148438,7.433594 -21.03125,9.859375 2.09375,3.84375 6.070312,5.765625 11.9375,5.765625 3.757812,0 8.046875,-1.316406 12.859375,-3.953125 4.820313,-2.632813 8.988281,-6.085937 12.5,-10.359375 C 59.648438,-27.414062 60.78125,-28 62.03125,-28 Z M 30.390625,-46.21875 c -3.09375,0 -5.710937,1.804688 -7.84375,5.40625 -2.136719,3.605469 -3.203125,7.960938 -3.203125,13.0625 v 0.25 c 4.9375,-1.175781 8.828125,-2.9375 11.671875,-5.28125 2.84375,-2.34375 4.265625,-5.0625 4.265625,-8.15625 0,-1.59375 -0.4375,-2.867188 -1.3125,-3.828125 -0.875,-0.96875 -2.070312,-1.453125 -3.578125,-1.453125 z m 0,0"
           id="path34" />
      </g>
    </g>
  </g>
  <g
     fill="#000000"
     fill-opacity="1"
     id="g40"
     transform="matrix(0.31110798,0,0,0.20840549,-13.600704,-24.558)">
    <g
       transform="translate(100.78417,182.15311)"
       id="g39">
      <g
         id="g38">
        <path
           d="m 14.9375,0.625 c -3.179688,0 -5.417969,-1.671875 -6.71875,-5.015625 -1.292969,-3.351563 -1.9375,-8.710937 -1.9375,-16.078125 0,-10.882812 1.546875,-21.222656 4.640625,-31.015625 0.757813,-2.425781 1.992187,-4.203125 3.703125,-5.328125 1.71875,-1.132812 4.125,-1.703125 7.21875,-1.703125 1.675781,0 2.847656,0.210937 3.515625,0.625 0.675781,0.417969 1.015625,1.214844 1.015625,2.390625 0,1.335938 -0.632812,4.34375 -1.890625,9.03125 -0.835937,3.355469 -1.507813,6.265625 -2.015625,8.734375 -0.5,2.46875 -0.917969,5.546875 -1.25,9.234375 2.257812,-6.53125 4.957031,-12.054688 8.09375,-16.578125 3.144531,-4.519531 6.367188,-7.890625 9.671875,-10.109375 3.3125,-2.21875 6.429687,-3.328125 9.359375,-3.328125 2.9375,0 5.007812,0.671875 6.21875,2.015625 1.21875,1.335938 1.828125,3.382812 1.828125,6.140625 0,2.679687 -0.796875,7.53125 -2.390625,14.5625 -0.667969,3.023437 -1.125,5.28125 -1.375,6.78125 4.175781,-10.289063 8.816406,-17.78125 13.921875,-22.46875 5.113281,-4.6875 9.890625,-7.03125 14.328125,-7.03125 5.4375,0 8.15625,2.71875 8.15625,8.15625 0,3.273437 -0.921875,9.171875 -2.765625,17.703125 -1.585937,7.292969 -2.375,12.109375 -2.375,14.453125 0,3.34375 1.210937,5.015625 3.640625,5.015625 1.675781,0 3.664062,-1.023438 5.96875,-3.078125 2.300781,-2.050781 5.375,-5.378906 9.21875,-9.984375 1.00781,-1.164062 2.14063,-1.75 3.39063,-1.75 1.09375,0 1.95312,0.507812 2.57812,1.515625 0.625,1 0.9375,2.375 0.9375,4.125 0,3.355469 -0.79297,5.953125 -2.375,7.796875 -3.60547,4.4375 -7.480469,8.078125 -11.625,10.921875 C 91.476562,-0.796875 86.769531,0.625 81.5,0.625 77.226562,0.625 74.003906,-0.609375 71.828125,-3.078125 69.648438,-5.546875 68.5625,-9.125 68.5625,-13.8125 c 0,-2.34375 0.585938,-6.53125 1.765625,-12.5625 1.082031,-5.269531 1.625,-8.910156 1.625,-10.921875 0,-1.34375 -0.460937,-2.015625 -1.375,-2.015625 -1.09375,0 -2.648437,1.40625 -4.65625,4.21875 -2,2.804688 -4.007813,6.507812 -6.015625,11.109375 -2.011719,4.605469 -3.648438,9.460937 -4.90625,14.5625 -0.917969,4.023437 -1.984375,6.703125 -3.203125,8.046875 -1.210937,1.3359375 -3.152344,2 -5.828125,2 -2.773438,0 -4.851562,-1.316406 -6.234375,-3.953125 -1.375,-2.632813 -2.0625,-5.835937 -2.0625,-9.609375 0,-3.175781 0.414063,-7.78125 1.25,-13.8125 0.675781,-5.351562 1.015625,-8.867188 1.015625,-10.546875 0,-1.34375 -0.464844,-2.015625 -1.390625,-2.015625 -1.25,0 -2.839844,1.511719 -4.765625,4.53125 -1.929688,3.011719 -3.792969,6.859375 -5.59375,11.546875 -1.792969,4.6875 -3.234375,9.292969 -4.328125,13.8125 -0.917969,3.9375 -1.984375,6.601563 -3.203125,7.984375 -1.210938,1.375 -3.117188,2.0625 -5.71875,2.0625 z m 0,0"
           id="path37" />
      </g>
    </g>
  </g>
  <g
     fill="#000000"
     fill-opacity="1"
     id="g43"
     transform="matrix(0.31110798,0,0,0.20840549,-13.600704,-24.558)">
    <g
       transform="translate(195.21896,182.15311)"
       id="g42">
      <g
         id="g41">
        <path
           d="m 14.9375,0.625 c -3.179688,0 -5.417969,-1.671875 -6.71875,-5.015625 -1.292969,-3.351563 -1.9375,-8.710937 -1.9375,-16.078125 0,-10.882812 1.546875,-21.222656 4.640625,-31.015625 0.757813,-2.425781 1.992187,-4.203125 3.703125,-5.328125 1.71875,-1.132812 4.125,-1.703125 7.21875,-1.703125 1.675781,0 2.847656,0.210937 3.515625,0.625 0.675781,0.417969 1.015625,1.214844 1.015625,2.390625 0,1.335938 -0.632812,4.34375 -1.890625,9.03125 -0.835937,3.355469 -1.507813,6.265625 -2.015625,8.734375 -0.5,2.46875 -0.917969,5.546875 -1.25,9.234375 2.257812,-6.53125 4.957031,-12.054688 8.09375,-16.578125 3.144531,-4.519531 6.367188,-7.890625 9.671875,-10.109375 3.3125,-2.21875 6.429687,-3.328125 9.359375,-3.328125 2.9375,0 5.007812,0.671875 6.21875,2.015625 1.21875,1.335938 1.828125,3.382812 1.828125,6.140625 0,2.679687 -0.796875,7.53125 -2.390625,14.5625 -0.667969,3.023437 -1.125,5.28125 -1.375,6.78125 4.175781,-10.289063 8.816406,-17.78125 13.921875,-22.46875 5.113281,-4.6875 9.890625,-7.03125 14.328125,-7.03125 5.4375,0 8.15625,2.71875 8.15625,8.15625 0,3.273437 -0.921875,9.171875 -2.765625,17.703125 -1.585937,7.292969 -2.375,12.109375 -2.375,14.453125 0,3.34375 1.210937,5.015625 3.640625,5.015625 1.675781,0 3.664062,-1.023438 5.96875,-3.078125 2.300781,-2.050781 5.375,-5.378906 9.21875,-9.984375 1.00781,-1.164062 2.14063,-1.75 3.39063,-1.75 1.09375,0 1.95312,0.507812 2.57812,1.515625 0.625,1 0.9375,2.375 0.9375,4.125 0,3.355469 -0.79297,5.953125 -2.375,7.796875 -3.60547,4.4375 -7.480469,8.078125 -11.625,10.921875 C 91.476562,-0.796875 86.769531,0.625 81.5,0.625 77.226562,0.625 74.003906,-0.609375 71.828125,-3.078125 69.648438,-5.546875 68.5625,-9.125 68.5625,-13.8125 c 0,-2.34375 0.585938,-6.53125 1.765625,-12.5625 1.082031,-5.269531 1.625,-8.910156 1.625,-10.921875 0,-1.34375 -0.460937,-2.015625 -1.375,-2.015625 -1.09375,0 -2.648437,1.40625 -4.65625,4.21875 -2,2.804688 -4.007813,6.507812 -6.015625,11.109375 -2.011719,4.605469 -3.648438,9.460937 -4.90625,14.5625 -0.917969,4.023437 -1.984375,6.703125 -3.203125,8.046875 -1.210937,1.3359375 -3.152344,2 -5.828125,2 -2.773438,0 -4.851562,-1.316406 -6.234375,-3.953125 -1.375,-2.632813 -2.0625,-5.835937 -2.0625,-9.609375 0,-3.175781 0.414063,-7.78125 1.25,-13.8125 0.675781,-5.351562 1.015625,-8.867188 1.015625,-10.546875 0,-1.34375 -0.464844,-2.015625 -1.390625,-2.015625 -1.25,0 -2.839844,1.511719 -4.765625,4.53125 -1.929688,3.011719 -3.792969,6.859375 -5.59375,11.546875 -1.792969,4.6875 -3.234375,9.292969 -4.328125,13.8125 -0.917969,3.9375 -1.984375,6.601563 -3.203125,7.984375 -1.210938,1.375 -3.117188,2.0625 -5.71875,2.0625 z m 0,0"
           id="path40" />
      </g>
    </g>
  </g>
  <g
     fill="#000000"
     fill-opacity="1"
     id="g46"
     transform="matrix(0.31110798,0,0,0.20840549,-13.600704,-24.558)">
    <g
       transform="translate(289.65373,182.15311)"
       id="g45">
      <g
         id="g44">
        <path
           d="m 21.46875,0.625 c -5.1875,0 -9.335938,-1.878906 -12.4375,-5.640625 -3.09375,-3.769531 -4.640625,-8.710937 -4.640625,-14.828125 0,-6.695312 1.546875,-13.035156 4.640625,-19.015625 3.101562,-5.988281 7.226562,-10.800781 12.375,-14.4375 5.15625,-3.644531 10.617188,-5.46875 16.390625,-5.46875 1.84375,0 3.078125,0.355469 3.703125,1.0625 0.632812,0.710937 1.160156,1.984375 1.578125,3.828125 1.75,-0.332031 3.585937,-0.5 5.515625,-0.5 4.101562,0 6.15625,1.464844 6.15625,4.390625 0,1.761719 -0.625,5.949219 -1.875,12.5625 -1.929688,9.625 -2.890625,16.324219 -2.890625,20.09375 0,1.25 0.3125,2.257813 0.9375,3.015625 0.625,0.75 1.441406,1.125 2.453125,1.125 1.582031,0 3.503906,-1.023438 5.765625,-3.078125 2.257813,-2.050781 5.316406,-5.378906 9.171875,-9.984375 1.007812,-1.164062 2.140625,-1.75 3.390625,-1.75 1.09375,0 1.953125,0.507812 2.578125,1.515625 0.625,1 0.9375,2.375 0.9375,4.125 0,3.355469 -0.796875,5.953125 -2.390625,7.796875 -3.429687,4.273438 -7.070313,7.871094 -10.921875,10.796875 C 58.0625,-0.835938 54.335938,0.625 50.734375,0.625 c -2.761719,0 -5.292969,-0.9375 -7.59375,-2.8125 -2.304687,-1.882812 -4.042969,-4.460938 -5.21875,-7.734375 C 33.566406,-2.890625 28.082031,0.625 21.46875,0.625 Z M 26,-12.0625 c 1.832031,0 3.585938,-1.082031 5.265625,-3.25 1.675781,-2.175781 2.890625,-5.066406 3.640625,-8.671875 L 39.5625,-47.09375 c -3.523438,0.08594 -6.773438,1.402344 -9.75,3.953125 -2.96875,2.554687 -5.335938,5.921875 -7.09375,10.109375 -1.75,4.1875 -2.625,8.625 -2.625,13.3125 0,2.59375 0.519531,4.523438 1.5625,5.78125 1.050781,1.25 2.5,1.875 4.34375,1.875 z m 0,0"
           id="path43" />
      </g>
    </g>
  </g>
  <g
     fill="#fc64ab"
     fill-opacity="1"
     id="g49"
     transform="matrix(0.31110798,0,0,0.20840549,-13.600704,-24.558)">
    <g
       transform="translate(44.87742,176.60321)"
       id="g48">
      <g
         id="g47">
        <path
           d="m 62.03125,-28 c 1.09375,0 1.953125,0.507812 2.578125,1.515625 0.625,1 0.9375,2.375 0.9375,4.125 0,3.355469 -0.792969,5.953125 -2.375,7.796875 C 60.066406,-10.800781 55.6875,-7.328125 50.03125,-4.140625 44.382812,-0.960938 38.335938,0.625 31.890625,0.625 c -8.78125,0 -15.605469,-2.382812 -20.46875,-7.15625 -4.855469,-4.769531 -7.28125,-11.300781 -7.28125,-19.59375 0,-5.769531 1.210937,-11.144531 3.640625,-16.125 2.425781,-4.988281 5.796875,-8.945312 10.109375,-11.875 4.3125,-2.925781 9.191406,-4.390625 14.640625,-4.390625 4.851562,0 8.742188,1.445313 11.671875,4.328125 2.925781,2.886719 4.390625,6.796875 4.390625,11.734375 0,5.78125 -2.074219,10.746094 -6.21875,14.890625 -4.136719,4.148438 -11.148438,7.433594 -21.03125,9.859375 2.09375,3.84375 6.070312,5.765625 11.9375,5.765625 3.757812,0 8.046875,-1.316406 12.859375,-3.953125 4.820313,-2.632813 8.988281,-6.085937 12.5,-10.359375 C 59.648438,-27.414062 60.78125,-28 62.03125,-28 Z M 30.390625,-46.21875 c -3.09375,0 -5.710937,1.804688 -7.84375,5.40625 -2.136719,3.605469 -3.203125,7.960938 -3.203125,13.0625 v 0.25 c 4.9375,-1.175781 8.828125,-2.9375 11.671875,-5.28125 2.84375,-2.34375 4.265625,-5.0625 4.265625,-8.15625 0,-1.59375 -0.4375,-2.867188 -1.3125,-3.828125 -0.875,-0.96875 -2.070312,-1.453125 -3.578125,-1.453125 z m 0,0"
           id="path46" />
      </g>
    </g>
  </g>
  <g
     fill="#fc64ab"
     fill-opacity="1"
     id="g52"
     transform="matrix(0.31110798,0,0,0.20840549,-13.600704,-24.558)">
    <g
       transform="translate(95.23427,176.60321)"
       id="g51">
      <g
         id="g50">
        <path
           d="m 14.9375,0.625 c -3.179688,0 -5.417969,-1.671875 -6.71875,-5.015625 -1.292969,-3.351563 -1.9375,-8.710937 -1.9375,-16.078125 0,-10.882812 1.546875,-21.222656 4.640625,-31.015625 0.757813,-2.425781 1.992187,-4.203125 3.703125,-5.328125 1.71875,-1.132812 4.125,-1.703125 7.21875,-1.703125 1.675781,0 2.847656,0.210937 3.515625,0.625 0.675781,0.417969 1.015625,1.214844 1.015625,2.390625 0,1.335938 -0.632812,4.34375 -1.890625,9.03125 -0.835937,3.355469 -1.507813,6.265625 -2.015625,8.734375 -0.5,2.46875 -0.917969,5.546875 -1.25,9.234375 2.257812,-6.53125 4.957031,-12.054688 8.09375,-16.578125 3.144531,-4.519531 6.367188,-7.890625 9.671875,-10.109375 3.3125,-2.21875 6.429687,-3.328125 9.359375,-3.328125 2.9375,0 5.007812,0.671875 6.21875,2.015625 1.21875,1.335938 1.828125,3.382812 1.828125,6.140625 0,2.679687 -0.796875,7.53125 -2.390625,14.5625 -0.667969,3.023437 -1.125,5.28125 -1.375,6.78125 4.175781,-10.289063 8.816406,-17.78125 13.921875,-22.46875 5.113281,-4.6875 9.890625,-7.03125 14.328125,-7.03125 5.4375,0 8.15625,2.71875 8.15625,8.15625 0,3.273437 -0.921875,9.171875 -2.765625,17.703125 -1.585937,7.292969 -2.375,12.109375 -2.375,14.453125 0,3.34375 1.210937,5.015625 3.640625,5.015625 1.675781,0 3.664062,-1.023438 5.96875,-3.078125 2.300781,-2.050781 5.375,-5.378906 9.21875,-9.984375 1.00781,-1.164062 2.14063,-1.75 3.39063,-1.75 1.09375,0 1.95312,0.507812 2.57812,1.515625 0.625,1 0.9375,2.375 0.9375,4.125 0,3.355469 -0.79297,5.953125 -2.375,7.796875 -3.60547,4.4375 -7.480469,8.078125 -11.625,10.921875 C 91.476562,-0.796875 86.769531,0.625 81.5,0.625 77.226562,0.625 74.003906,-0.609375 71.828125,-3.078125 69.648438,-5.546875 68.5625,-9.125 68.5625,-13.8125 c 0,-2.34375 0.585938,-6.53125 1.765625,-12.5625 1.082031,-5.269531 1.625,-8.910156 1.625,-10.921875 0,-1.34375 -0.460937,-2.015625 -1.375,-2.015625 -1.09375,0 -2.648437,1.40625 -4.65625,4.21875 -2,2.804688 -4.007813,6.507812 -6.015625,11.109375 -2.011719,4.605469 -3.648438,9.460937 -4.90625,14.5625 -0.917969,4.023437 -1.984375,6.703125 -3.203125,8.046875 -1.210937,1.3359375 -3.152344,2 -5.828125,2 -2.773438,0 -4.851562,-1.316406 -6.234375,-3.953125 -1.375,-2.632813 -2.0625,-5.835937 -2.0625,-9.609375 0,-3.175781 0.414063,-7.78125 1.25,-13.8125 0.675781,-5.351562 1.015625,-8.867188 1.015625,-10.546875 0,-1.34375 -0.464844,-2.015625 -1.390625,-2.015625 -1.25,0 -2.839844,1.511719 -4.765625,4.53125 -1.929688,3.011719 -3.792969,6.859375 -5.59375,11.546875 -1.792969,4.6875 -3.234375,9.292969 -4.328125,13.8125 -0.917969,3.9375 -1.984375,6.601563 -3.203125,7.984375 -1.210938,1.375 -3.117188,2.0625 -5.71875,2.0625 z m 0,0"
           id="path49" />
      </g>
    </g>
  </g>
  <g
     fill="#fc64ab"
     fill-opacity="1"
     id="g55"
     transform="matrix(0.31110798,0,0,0.20840549,-13.600704,-24.558)">
    <g
       transform="translate(189.66905,176.60321)"
       id="g54">
      <g
         id="g53">
        <path
           d="m 14.9375,0.625 c -3.179688,0 -5.417969,-1.671875 -6.71875,-5.015625 -1.292969,-3.351563 -1.9375,-8.710937 -1.9375,-16.078125 0,-10.882812 1.546875,-21.222656 4.640625,-31.015625 0.757813,-2.425781 1.992187,-4.203125 3.703125,-5.328125 1.71875,-1.132812 4.125,-1.703125 7.21875,-1.703125 1.675781,0 2.847656,0.210937 3.515625,0.625 0.675781,0.417969 1.015625,1.214844 1.015625,2.390625 0,1.335938 -0.632812,4.34375 -1.890625,9.03125 -0.835937,3.355469 -1.507813,6.265625 -2.015625,8.734375 -0.5,2.46875 -0.917969,5.546875 -1.25,9.234375 2.257812,-6.53125 4.957031,-12.054688 8.09375,-16.578125 3.144531,-4.519531 6.367188,-7.890625 9.671875,-10.109375 3.3125,-2.21875 6.429687,-3.328125 9.359375,-3.328125 2.9375,0 5.007812,0.671875 6.21875,2.015625 1.21875,1.335938 1.828125,3.382812 1.828125,6.140625 0,2.679687 -0.796875,7.53125 -2.390625,14.5625 -0.667969,3.023437 -1.125,5.28125 -1.375,6.78125 4.175781,-10.289063 8.816406,-17.78125 13.921875,-22.46875 5.113281,-4.6875 9.890625,-7.03125 14.328125,-7.03125 5.4375,0 8.15625,2.71875 8.15625,8.15625 0,3.273437 -0.921875,9.171875 -2.765625,17.703125 -1.585937,7.292969 -2.375,12.109375 -2.375,14.453125 0,3.34375 1.210937,5.015625 3.640625,5.015625 1.675781,0 3.664062,-1.023438 5.96875,-3.078125 2.300781,-2.050781 5.375,-5.378906 9.21875,-9.984375 1.00781,-1.164062 2.14063,-1.75 3.39063,-1.75 1.09375,0 1.95312,0.507812 2.57812,1.515625 0.625,1 0.9375,2.375 0.9375,4.125 0,3.355469 -0.79297,5.953125 -2.375,7.796875 -3.60547,4.4375 -7.480469,8.078125 -11.625,10.921875 C 91.476562,-0.796875 86.769531,0.625 81.5,0.625 77.226562,0.625 74.003906,-0.609375 71.828125,-3.078125 69.648438,-5.546875 68.5625,-9.125 68.5625,-13.8125 c 0,-2.34375 0.585938,-6.53125 1.765625,-12.5625 1.082031,-5.269531 1.625,-8.910156 1.625,-10.921875 0,-1.34375 -0.460937,-2.015625 -1.375,-2.015625 -1.09375,0 -2.648437,1.40625 -4.65625,4.21875 -2,2.804688 -4.007813,6.507812 -6.015625,11.109375 -2.011719,4.605469 -3.648438,9.460937 -4.90625,14.5625 -0.917969,4.023437 -1.984375,6.703125 -3.203125,8.046875 -1.210937,1.3359375 -3.152344,2 -5.828125,2 -2.773438,0 -4.851562,-1.316406 -6.234375,-3.953125 -1.375,-2.632813 -2.0625,-5.835937 -2.0625,-9.609375 0,-3.175781 0.414063,-7.78125 1.25,-13.8125 0.675781,-5.351562 1.015625,-8.867188 1.015625,-10.546875 0,-1.34375 -0.464844,-2.015625 -1.390625,-2.015625 -1.25,0 -2.839844,1.511719 -4.765625,4.53125 -1.929688,3.011719 -3.792969,6.859375 -5.59375,11.546875 -1.792969,4.6875 -3.234375,9.292969 -4.328125,13.8125 -0.917969,3.9375 -1.984375,6.601563 -3.203125,7.984375 -1.210938,1.375 -3.117188,2.0625 -5.71875,2.0625 z m 0,0"
           id="path52" />
      </g>
    </g>
  </g>
  <g
     fill="#fc64ab"
     fill-opacity="1"
     id="g58"
     transform="matrix(0.31110798,0,0,0.20840549,-13.600704,-24.558)">
    <g
       transform="translate(284.10383,176.60321)"
       id="g57">
      <g
         id="g56">
        <path
           d="m 21.46875,0.625 c -5.1875,0 -9.335938,-1.878906 -12.4375,-5.640625 -3.09375,-3.769531 -4.640625,-8.710937 -4.640625,-14.828125 0,-6.695312 1.546875,-13.035156 4.640625,-19.015625 3.101562,-5.988281 7.226562,-10.800781 12.375,-14.4375 5.15625,-3.644531 10.617188,-5.46875 16.390625,-5.46875 1.84375,0 3.078125,0.355469 3.703125,1.0625 0.632812,0.710937 1.160156,1.984375 1.578125,3.828125 1.75,-0.332031 3.585937,-0.5 5.515625,-0.5 4.101562,0 6.15625,1.464844 6.15625,4.390625 0,1.761719 -0.625,5.949219 -1.875,12.5625 -1.929688,9.625 -2.890625,16.324219 -2.890625,20.09375 0,1.25 0.3125,2.257813 0.9375,3.015625 0.625,0.75 1.441406,1.125 2.453125,1.125 1.582031,0 3.503906,-1.023438 5.765625,-3.078125 2.257813,-2.050781 5.316406,-5.378906 9.171875,-9.984375 1.007812,-1.164062 2.140625,-1.75 3.390625,-1.75 1.09375,0 1.953125,0.507812 2.578125,1.515625 0.625,1 0.9375,2.375 0.9375,4.125 0,3.355469 -0.796875,5.953125 -2.390625,7.796875 -3.429687,4.273438 -7.070313,7.871094 -10.921875,10.796875 C 58.0625,-0.835938 54.335938,0.625 50.734375,0.625 c -2.761719,0 -5.292969,-0.9375 -7.59375,-2.8125 -2.304687,-1.882812 -4.042969,-4.460938 -5.21875,-7.734375 C 33.566406,-2.890625 28.082031,0.625 21.46875,0.625 Z M 26,-12.0625 c 1.832031,0 3.585938,-1.082031 5.265625,-3.25 1.675781,-2.175781 2.890625,-5.066406 3.640625,-8.671875 L 39.5625,-47.09375 c -3.523438,0.08594 -6.773438,1.402344 -9.75,3.953125 -2.96875,2.554687 -5.335938,5.921875 -7.09375,10.109375 -1.75,4.1875 -2.625,8.625 -2.625,13.3125 0,2.59375 0.519531,4.523438 1.5625,5.78125 1.050781,1.25 2.5,1.875 4.34375,1.875 z m 0,0"
           id="path55" />
      </g>
    </g>
  </g>
</svg>
